M48
;GenerationSoftware,Autodesk,EAGLE,9.6.2*%
;CreationDate,2021-12-23T14:39:16Z*%
FMAT,2
ICI,OFF
METRIC,TZ,000.000
T2C0.350
T1C1.016
%
G90
M71
T1
X95250Y35560
X97790Y38100
X95250Y38100
X97790Y40640
X95250Y40640
X97790Y43180
X95250Y43180
X97790Y45720
X95250Y45720
X97790Y48260
X95250Y48260
X97790Y50800
X95250Y50800
X97790Y53340
X95250Y53340
X97790Y55880
X95250Y55880
X97790Y58420
X95250Y58420
X97790Y60960
X95250Y60960
X97790Y63500
X95250Y63500
X97790Y66040
X95250Y66040
X97790Y68580
X95250Y68580
X97790Y71120
X95250Y71120
X97790Y73660
X95250Y73660
X86360Y91440
X86360Y88900
X83820Y91440
X83820Y88900
X81280Y91440
X81280Y88900
X78740Y91440
X78740Y88900
X76200Y91440
X76200Y88900
X73660Y91440
X73660Y88900
X68580Y7620
X71120Y91440
X71120Y88900
X68580Y91440
X68580Y88900
X66040Y91440
X66040Y88900
X63500Y91440
X63500Y88900
X60960Y91440
X60960Y88900
X58420Y91440
X58420Y88900
X55880Y91440
X55880Y88900
X53340Y91440
X53340Y88900
X50800Y91440
X50800Y88900
X48260Y91440
X48260Y88900
X45720Y91440
X45720Y88900
X43180Y91440
X43180Y88900
X40640Y88900
X38100Y91440
X38100Y88900
X92710Y25400
X90170Y25400
X92710Y27940
X90170Y27940
X92710Y30480
X90170Y30480
X92710Y33020
X90170Y33020
X92710Y35560
X90170Y35560
X92710Y38100
X90170Y38100
X92710Y40640
X90170Y40640
X92710Y43180
X90170Y43180
X92710Y45720
X90170Y45720
X92710Y48260
X90170Y48260
X92710Y50800
X90170Y50800
X92710Y53340
X90170Y53340
X92710Y55880
X90170Y55880
X92710Y58420
X90170Y58420
X92710Y60960
X90170Y60960
X92710Y63500
X90170Y63500
X92710Y66040
X90170Y66040
X92710Y68580
X90170Y68580
X92710Y71120
X90170Y71120
X92710Y73660
X90170Y73660
X38100Y2540
X38100Y5080
X40640Y2540
X40640Y5080
X43180Y2540
X43180Y5080
X45720Y2540
X45720Y5080
X48260Y2540
X48260Y5080
X50800Y2540
X50800Y5080
X53340Y2540
X53340Y5080
X55880Y2540
X55880Y5080
X58420Y2540
X58420Y5080
X60960Y2540
X60960Y5080
X63500Y2540
X63500Y5080
X66040Y2540
X66040Y5080
X68580Y2540
X68580Y5080
X71120Y2540
X71120Y5080
X73660Y2540
X73660Y5080
X76200Y2540
X76200Y5080
X78740Y2540
X78740Y5080
X81280Y2540
X81280Y5080
X83820Y2540
X83820Y5080
X86360Y2540
X86360Y5080
X38100Y7620
X38100Y10160
X40640Y7620
X40640Y10160
X43180Y7620
X43180Y10160
X45720Y7620
X45720Y10160
X48260Y7620
X48260Y10160
X50800Y7620
X50800Y10160
X53340Y7620
X53340Y10160
X55880Y7620
X55880Y10160
X58420Y7620
X58420Y10160
X60960Y7620
X60960Y10160
X63500Y7620
X63500Y10160
X66040Y7620
X66040Y10160
X40640Y91440
X68580Y10160
X71120Y7620
X71120Y10160
X73660Y7620
X73660Y10160
X76200Y7620
X76200Y10160
X78740Y7620
X78740Y10160
X81280Y7620
X81280Y10160
X83820Y7620
X83820Y10160
X86360Y7620
X86360Y10160
X86360Y96520
X86360Y93980
X83820Y96520
X83820Y93980
X81280Y96520
X81280Y93980
X78740Y96520
X78740Y93980
X76200Y96520
X76200Y93980
X73660Y96520
X73660Y93980
X71120Y96520
X71120Y93980
X68580Y96520
X68580Y93980
X66040Y96520
X66040Y93980
X63500Y96520
X63500Y93980
X60960Y96520
X60960Y93980
X58420Y96520
X58420Y93980
X55880Y96520
X55880Y93980
X53340Y96520
X53340Y93980
X50800Y96520
X50800Y93980
X48260Y96520
X48260Y93980
X45720Y96520
X45720Y93980
X43180Y96520
X43180Y93980
X40640Y96520
X40640Y93980
X38100Y96520
X38100Y93980
X97790Y25400
X95250Y25400
X97790Y27940
X95250Y27940
X97790Y30480
X95250Y30480
X97790Y33020
X95250Y33020
X97790Y35560
T2
X57309Y42863
X46355Y44767
X44450Y43180
X78899Y14446
X73343Y41910
X76359Y14446
X71279Y40005
X73819Y14446
X76041Y15399
X72073Y40640
X71279Y14446
X70644Y36830
X68739Y14446
X69850Y34290
X66199Y14446
X66199Y37465
X63659Y14446
X63659Y38735
X61119Y14446
X62706Y39370
X58579Y14446
X58579Y38418
X56039Y14446
X55245Y37465
X53499Y14446
X53499Y35560
X50959Y14446
X50324Y34925
X48419Y14446
X50959Y15399
X50959Y33020
X45879Y14446
X44450Y32067
X43339Y14446
X43339Y30797
X80010Y31591
X84455Y32385
X84773Y28734
X84455Y27305
X84138Y26035
X85408Y27305
X31591Y14129
X35401Y15081
X26035Y86360
X79375Y48260
X59055Y48260
X38735Y48260
X17145Y48260
X18923Y74244
X65564Y41910
X65564Y66675
X64294Y34925
X64294Y60325
X83503Y32385
X83503Y19368
X62865Y32385
X62865Y20003
X42545Y32385
X42545Y20638
X20955Y32385
X32702Y18733
X20955Y57785
X29210Y78423
X42545Y57785
X42545Y78740
X62865Y57785
X62865Y79375
X83185Y57785
X83185Y80010
X72708Y44450
X70485Y56515
X72073Y59055
X66834Y58420
X71279Y84614
X66199Y60007
X68739Y84614
X64770Y61277
X66199Y84614
X63500Y62547
X63659Y84614
X59690Y63817
X61119Y84614
X59690Y65087
X58579Y84614
X58579Y64452
X56039Y84614
X59214Y62865
X53499Y84614
X59690Y59055
X50959Y84614
X45402Y61595
X48419Y84614
X49530Y66675
X48101Y83661
X44767Y65405
X46355Y67945
X38894Y69850
X70009Y69215
X70009Y70485
X69850Y68104
X67151Y82074
X35243Y83503
X83185Y52705
X83185Y51435
X83026Y46355
X84455Y37941
X69850Y52546
X83185Y37148
X66675Y53657
X45561Y84614
X35401Y46037
M30