G04 EAGLE Gerber RS-274X export*
G75*
%MOMM*%
%FSLAX34Y34*%
%LPD*%
%INSolderpaste Top*%
%IPPOS*%
%AMOC8*
5,1,8,0,0,1.08239X$1,22.5*%
G01*
%ADD10R,0.940000X0.830000*%
%ADD11R,0.830000X0.940000*%
%ADD12R,1.922000X0.700000*%
%ADD13R,1.475000X0.450000*%
%ADD14R,0.950000X0.800000*%


D10*
X260350Y835275D03*
X260350Y822075D03*
D11*
X793500Y730250D03*
X806700Y730250D03*
X793500Y469900D03*
X806700Y469900D03*
X387100Y469900D03*
X400300Y469900D03*
X387100Y730250D03*
X400300Y730250D03*
X590300Y730250D03*
X603500Y730250D03*
X590300Y469900D03*
X603500Y469900D03*
X177550Y730250D03*
X190750Y730250D03*
X171200Y469900D03*
X184400Y469900D03*
D12*
X276760Y704850D03*
X276760Y692150D03*
X276760Y679450D03*
X276760Y666750D03*
X276760Y654050D03*
X276760Y641350D03*
X276760Y628650D03*
X276760Y615950D03*
X276760Y603250D03*
X276760Y590550D03*
X276760Y577850D03*
X276760Y565150D03*
X276760Y552450D03*
X276760Y539750D03*
X276760Y527050D03*
X276760Y514350D03*
X409040Y514350D03*
X409040Y527050D03*
X409040Y539750D03*
X409040Y552450D03*
X409040Y565150D03*
X409040Y577850D03*
X409040Y590550D03*
X409040Y603250D03*
X409040Y615950D03*
X409040Y628650D03*
X409040Y641350D03*
X409040Y654050D03*
X409040Y666750D03*
X409040Y679450D03*
X409040Y692150D03*
X409040Y704850D03*
D13*
X337355Y821800D03*
X337355Y828300D03*
X337355Y834800D03*
X337355Y841300D03*
X337355Y847800D03*
X337355Y854300D03*
X337355Y860800D03*
X337355Y867300D03*
X278595Y867300D03*
X278595Y860800D03*
X278595Y854300D03*
X278595Y847800D03*
X278595Y841300D03*
X278595Y834800D03*
X278595Y828300D03*
X278595Y821800D03*
D12*
X683160Y450850D03*
X683160Y438150D03*
X683160Y425450D03*
X683160Y412750D03*
X683160Y400050D03*
X683160Y387350D03*
X683160Y374650D03*
X683160Y361950D03*
X683160Y349250D03*
X683160Y336550D03*
X683160Y323850D03*
X683160Y311150D03*
X683160Y298450D03*
X683160Y285750D03*
X683160Y273050D03*
X683160Y260350D03*
X815440Y260350D03*
X815440Y273050D03*
X815440Y285750D03*
X815440Y298450D03*
X815440Y311150D03*
X815440Y323850D03*
X815440Y336550D03*
X815440Y349250D03*
X815440Y361950D03*
X815440Y374650D03*
X815440Y387350D03*
X815440Y400050D03*
X815440Y412750D03*
X815440Y425450D03*
X815440Y438150D03*
X815440Y450850D03*
X479960Y704850D03*
X479960Y692150D03*
X479960Y679450D03*
X479960Y666750D03*
X479960Y654050D03*
X479960Y641350D03*
X479960Y628650D03*
X479960Y615950D03*
X479960Y603250D03*
X479960Y590550D03*
X479960Y577850D03*
X479960Y565150D03*
X479960Y552450D03*
X479960Y539750D03*
X479960Y527050D03*
X479960Y514350D03*
X612240Y514350D03*
X612240Y527050D03*
X612240Y539750D03*
X612240Y552450D03*
X612240Y565150D03*
X612240Y577850D03*
X612240Y590550D03*
X612240Y603250D03*
X612240Y615950D03*
X612240Y628650D03*
X612240Y641350D03*
X612240Y654050D03*
X612240Y666750D03*
X612240Y679450D03*
X612240Y692150D03*
X612240Y704850D03*
X683160Y704850D03*
X683160Y692150D03*
X683160Y679450D03*
X683160Y666750D03*
X683160Y654050D03*
X683160Y641350D03*
X683160Y628650D03*
X683160Y615950D03*
X683160Y603250D03*
X683160Y590550D03*
X683160Y577850D03*
X683160Y565150D03*
X683160Y552450D03*
X683160Y539750D03*
X683160Y527050D03*
X683160Y514350D03*
X815440Y514350D03*
X815440Y527050D03*
X815440Y539750D03*
X815440Y552450D03*
X815440Y565150D03*
X815440Y577850D03*
X815440Y590550D03*
X815440Y603250D03*
X815440Y615950D03*
X815440Y628650D03*
X815440Y641350D03*
X815440Y654050D03*
X815440Y666750D03*
X815440Y679450D03*
X815440Y692150D03*
X815440Y704850D03*
X60860Y704850D03*
X60860Y692150D03*
X60860Y679450D03*
X60860Y666750D03*
X60860Y654050D03*
X60860Y641350D03*
X60860Y628650D03*
X60860Y615950D03*
X60860Y603250D03*
X60860Y590550D03*
X60860Y577850D03*
X60860Y565150D03*
X60860Y552450D03*
X60860Y539750D03*
X60860Y527050D03*
X60860Y514350D03*
X193140Y514350D03*
X193140Y527050D03*
X193140Y539750D03*
X193140Y552450D03*
X193140Y565150D03*
X193140Y577850D03*
X193140Y590550D03*
X193140Y603250D03*
X193140Y615950D03*
X193140Y628650D03*
X193140Y641350D03*
X193140Y654050D03*
X193140Y666750D03*
X193140Y679450D03*
X193140Y692150D03*
X193140Y704850D03*
X479960Y450850D03*
X479960Y438150D03*
X479960Y425450D03*
X479960Y412750D03*
X479960Y400050D03*
X479960Y387350D03*
X479960Y374650D03*
X479960Y361950D03*
X479960Y349250D03*
X479960Y336550D03*
X479960Y323850D03*
X479960Y311150D03*
X479960Y298450D03*
X479960Y285750D03*
X479960Y273050D03*
X479960Y260350D03*
X612240Y260350D03*
X612240Y273050D03*
X612240Y285750D03*
X612240Y298450D03*
X612240Y311150D03*
X612240Y323850D03*
X612240Y336550D03*
X612240Y349250D03*
X612240Y361950D03*
X612240Y374650D03*
X612240Y387350D03*
X612240Y400050D03*
X612240Y412750D03*
X612240Y425450D03*
X612240Y438150D03*
X612240Y450850D03*
X276760Y450850D03*
X276760Y438150D03*
X276760Y425450D03*
X276760Y412750D03*
X276760Y400050D03*
X276760Y387350D03*
X276760Y374650D03*
X276760Y361950D03*
X276760Y349250D03*
X276760Y336550D03*
X276760Y323850D03*
X276760Y311150D03*
X276760Y298450D03*
X276760Y285750D03*
X276760Y273050D03*
X276760Y260350D03*
X409040Y260350D03*
X409040Y273050D03*
X409040Y285750D03*
X409040Y298450D03*
X409040Y311150D03*
X409040Y323850D03*
X409040Y336550D03*
X409040Y349250D03*
X409040Y361950D03*
X409040Y374650D03*
X409040Y387350D03*
X409040Y400050D03*
X409040Y412750D03*
X409040Y425450D03*
X409040Y438150D03*
X409040Y450850D03*
X60860Y450850D03*
X60860Y438150D03*
X60860Y425450D03*
X60860Y412750D03*
X60860Y400050D03*
X60860Y387350D03*
X60860Y374650D03*
X60860Y361950D03*
X60860Y349250D03*
X60860Y336550D03*
X60860Y323850D03*
X60860Y311150D03*
X60860Y298450D03*
X60860Y285750D03*
X60860Y273050D03*
X60860Y260350D03*
X193140Y260350D03*
X193140Y273050D03*
X193140Y285750D03*
X193140Y298450D03*
X193140Y311150D03*
X193140Y323850D03*
X193140Y336550D03*
X193140Y349250D03*
X193140Y361950D03*
X193140Y374650D03*
X193140Y387350D03*
X193140Y400050D03*
X193140Y412750D03*
X193140Y425450D03*
X193140Y438150D03*
X193140Y450850D03*
D13*
X281770Y175150D03*
X281770Y168650D03*
X281770Y162150D03*
X281770Y155650D03*
X281770Y149150D03*
X281770Y142650D03*
X281770Y136150D03*
X281770Y129650D03*
X340530Y129650D03*
X340530Y136150D03*
X340530Y142650D03*
X340530Y149150D03*
X340530Y155650D03*
X340530Y162150D03*
X340530Y168650D03*
X340530Y175150D03*
D14*
X444500Y144400D03*
X444500Y160400D03*
X673100Y144400D03*
X673100Y160400D03*
X698500Y144400D03*
X698500Y160400D03*
X723900Y144400D03*
X723900Y160400D03*
X749300Y144400D03*
X749300Y160400D03*
X774700Y144400D03*
X774700Y160400D03*
X800100Y144400D03*
X800100Y160400D03*
X431800Y119000D03*
X431800Y135000D03*
X825500Y144400D03*
X825500Y160400D03*
X457200Y119000D03*
X457200Y135000D03*
X482600Y119000D03*
X482600Y135000D03*
X469900Y144400D03*
X469900Y160400D03*
X508000Y119000D03*
X508000Y135000D03*
X533400Y119000D03*
X533400Y135000D03*
X558800Y119000D03*
X558800Y135000D03*
X584200Y119000D03*
X584200Y135000D03*
X609600Y119000D03*
X609600Y135000D03*
X660400Y119000D03*
X660400Y135000D03*
X635000Y119000D03*
X635000Y135000D03*
X685800Y119000D03*
X685800Y135000D03*
X711200Y119000D03*
X711200Y135000D03*
X736600Y119000D03*
X736600Y135000D03*
X495300Y144400D03*
X495300Y160400D03*
X762000Y119000D03*
X762000Y135000D03*
X787400Y119000D03*
X787400Y135000D03*
X812800Y119000D03*
X812800Y135000D03*
X800100Y846200D03*
X800100Y830200D03*
X774700Y846200D03*
X774700Y830200D03*
X749300Y846200D03*
X749300Y830200D03*
X723900Y846200D03*
X723900Y830200D03*
X698500Y846200D03*
X698500Y830200D03*
X673100Y846200D03*
X673100Y830200D03*
X647700Y846200D03*
X647700Y830200D03*
X520700Y144400D03*
X520700Y160400D03*
X622300Y846200D03*
X622300Y830200D03*
X596900Y846200D03*
X596900Y830200D03*
X571500Y846200D03*
X571500Y830200D03*
X546100Y846200D03*
X546100Y830200D03*
X520700Y846200D03*
X520700Y830200D03*
X495300Y846200D03*
X495300Y830200D03*
X469900Y846200D03*
X469900Y830200D03*
X457200Y871600D03*
X457200Y855600D03*
X812800Y871600D03*
X812800Y855600D03*
X419100Y846200D03*
X419100Y830200D03*
X546100Y144400D03*
X546100Y160400D03*
X787400Y871600D03*
X787400Y855600D03*
X762000Y871600D03*
X762000Y855600D03*
X736600Y871600D03*
X736600Y855600D03*
X711200Y871600D03*
X711200Y855600D03*
X685800Y871600D03*
X685800Y855600D03*
X660400Y871600D03*
X660400Y855600D03*
X635000Y871600D03*
X635000Y855600D03*
X584200Y871600D03*
X584200Y855600D03*
X609600Y871600D03*
X609600Y855600D03*
X558800Y871600D03*
X558800Y855600D03*
X571500Y144400D03*
X571500Y160400D03*
X533400Y871600D03*
X533400Y855600D03*
X508000Y871600D03*
X508000Y855600D03*
X482600Y871600D03*
X482600Y855600D03*
X444500Y846200D03*
X444500Y830200D03*
X431800Y871600D03*
X431800Y855600D03*
X596900Y144400D03*
X596900Y160400D03*
X622300Y144400D03*
X622300Y160400D03*
X647700Y144400D03*
X647700Y160400D03*
D10*
X358775Y161675D03*
X358775Y174875D03*
M02*
