G04*
G04 #@! TF.GenerationSoftware,Altium Limited,Altium Designer,22.1.2 (22)*
G04*
G04 Layer_Color=255*
%FSLAX25Y25*%
%MOIN*%
G70*
G04*
G04 #@! TF.SameCoordinates,7EB5FEC4-0347-4BB5-A0A8-A435BEEEC189*
G04*
G04*
G04 #@! TF.FilePolarity,Positive*
G04*
G01*
G75*
%ADD16O,0.05512X0.00984*%
%ADD17O,0.00984X0.05512*%
%ADD18R,0.06496X0.02559*%
G04:AMPARAMS|DCode=19|XSize=55.12mil|YSize=23.62mil|CornerRadius=0mil|HoleSize=0mil|Usage=FLASHONLY|Rotation=45.000|XOffset=0mil|YOffset=0mil|HoleType=Round|Shape=Rectangle|*
%AMROTATEDRECTD19*
4,1,4,-0.01114,-0.02784,-0.02784,-0.01114,0.01114,0.02784,0.02784,0.01114,-0.01114,-0.02784,0.0*
%
%ADD19ROTATEDRECTD19*%

G04:AMPARAMS|DCode=20|XSize=39.37mil|YSize=106.3mil|CornerRadius=0mil|HoleSize=0mil|Usage=FLASHONLY|Rotation=45.000|XOffset=0mil|YOffset=0mil|HoleType=Round|Shape=Rectangle|*
%AMROTATEDRECTD20*
4,1,4,0.02366,-0.05150,-0.05150,0.02366,-0.02366,0.05150,0.05150,-0.02366,0.02366,-0.05150,0.0*
%
%ADD20ROTATEDRECTD20*%

G04:AMPARAMS|DCode=21|XSize=129.92mil|YSize=106.3mil|CornerRadius=0mil|HoleSize=0mil|Usage=FLASHONLY|Rotation=45.000|XOffset=0mil|YOffset=0mil|HoleType=Round|Shape=Rectangle|*
%AMROTATEDRECTD21*
4,1,4,-0.00835,-0.08352,-0.08352,-0.00835,0.00835,0.08352,0.08352,0.00835,-0.00835,-0.08352,0.0*
%
%ADD21ROTATEDRECTD21*%

G04:AMPARAMS|DCode=22|XSize=36.61mil|YSize=38.58mil|CornerRadius=0mil|HoleSize=0mil|Usage=FLASHONLY|Rotation=225.000|XOffset=0mil|YOffset=0mil|HoleType=Round|Shape=Rectangle|*
%AMROTATEDRECTD22*
4,1,4,-0.00070,0.02659,0.02659,-0.00070,0.00070,-0.02659,-0.02659,0.00070,-0.00070,0.02659,0.0*
%
%ADD22ROTATEDRECTD22*%

%ADD23R,0.03858X0.03661*%
G04:AMPARAMS|DCode=24|XSize=36.61mil|YSize=38.58mil|CornerRadius=0mil|HoleSize=0mil|Usage=FLASHONLY|Rotation=135.000|XOffset=0mil|YOffset=0mil|HoleType=Round|Shape=Rectangle|*
%AMROTATEDRECTD24*
4,1,4,0.02659,0.00070,-0.00070,-0.02659,-0.02659,-0.00070,0.00070,0.02659,0.02659,0.00070,0.0*
%
%ADD24ROTATEDRECTD24*%

%ADD25R,0.03740X0.03543*%
%ADD38C,0.06000*%
%ADD39C,0.06299*%
D16*
X198268Y274449D02*
D03*
Y272480D02*
D03*
Y270512D02*
D03*
Y268543D02*
D03*
Y266575D02*
D03*
Y264606D02*
D03*
Y262638D02*
D03*
Y260669D02*
D03*
Y258701D02*
D03*
Y256732D02*
D03*
Y254764D02*
D03*
Y252795D02*
D03*
Y250827D02*
D03*
Y248858D02*
D03*
Y246890D02*
D03*
Y244921D02*
D03*
Y242953D02*
D03*
Y240984D02*
D03*
Y239016D02*
D03*
Y237047D02*
D03*
Y235079D02*
D03*
Y233110D02*
D03*
Y231142D02*
D03*
Y229173D02*
D03*
Y227205D02*
D03*
Y225236D02*
D03*
Y223268D02*
D03*
Y221299D02*
D03*
Y219331D02*
D03*
Y217362D02*
D03*
Y215394D02*
D03*
Y213425D02*
D03*
Y211457D02*
D03*
Y209488D02*
D03*
Y207520D02*
D03*
Y205551D02*
D03*
X281732D02*
D03*
Y207520D02*
D03*
Y209488D02*
D03*
Y211457D02*
D03*
Y213425D02*
D03*
Y215394D02*
D03*
Y217362D02*
D03*
Y219331D02*
D03*
Y221299D02*
D03*
Y223268D02*
D03*
Y225236D02*
D03*
Y227205D02*
D03*
Y229173D02*
D03*
Y231142D02*
D03*
Y233110D02*
D03*
Y235079D02*
D03*
Y237047D02*
D03*
Y239016D02*
D03*
Y240984D02*
D03*
Y242953D02*
D03*
Y244921D02*
D03*
Y246890D02*
D03*
Y248858D02*
D03*
Y250827D02*
D03*
Y252795D02*
D03*
Y254764D02*
D03*
Y256732D02*
D03*
Y258701D02*
D03*
Y260669D02*
D03*
Y262638D02*
D03*
Y264606D02*
D03*
Y266575D02*
D03*
Y268543D02*
D03*
Y270512D02*
D03*
Y272480D02*
D03*
Y274449D02*
D03*
D17*
X205551Y198268D02*
D03*
X207520D02*
D03*
X209488D02*
D03*
X211457D02*
D03*
X213425D02*
D03*
X215394D02*
D03*
X217362D02*
D03*
X219331D02*
D03*
X221299D02*
D03*
X223268D02*
D03*
X225236D02*
D03*
X227205D02*
D03*
X229173D02*
D03*
X231142D02*
D03*
X233110D02*
D03*
X235079D02*
D03*
X237047D02*
D03*
X239016D02*
D03*
X240984D02*
D03*
X242953D02*
D03*
X244921D02*
D03*
X246890D02*
D03*
X248858D02*
D03*
X250827D02*
D03*
X252795D02*
D03*
X254764D02*
D03*
X256732D02*
D03*
X258701D02*
D03*
X260669D02*
D03*
X262638D02*
D03*
X264606D02*
D03*
X266575D02*
D03*
X268543D02*
D03*
X270512D02*
D03*
X272480D02*
D03*
X274449D02*
D03*
Y281732D02*
D03*
X272480D02*
D03*
X270512D02*
D03*
X268543D02*
D03*
X266575D02*
D03*
X264606D02*
D03*
X262638D02*
D03*
X260669D02*
D03*
X258701D02*
D03*
X256732D02*
D03*
X254764D02*
D03*
X252795D02*
D03*
X250827D02*
D03*
X248858D02*
D03*
X246890D02*
D03*
X244921D02*
D03*
X242953D02*
D03*
X240984D02*
D03*
X239016D02*
D03*
X237047D02*
D03*
X235079D02*
D03*
X233110D02*
D03*
X231142D02*
D03*
X229173D02*
D03*
X227205D02*
D03*
X225236D02*
D03*
X223268D02*
D03*
X221299D02*
D03*
X219331D02*
D03*
X217362D02*
D03*
X215394D02*
D03*
X213425D02*
D03*
X211457D02*
D03*
X209488D02*
D03*
X207520D02*
D03*
X205551D02*
D03*
D18*
X303173Y172000D02*
D03*
Y167000D02*
D03*
Y162000D02*
D03*
Y157000D02*
D03*
X274827D02*
D03*
Y162000D02*
D03*
Y167000D02*
D03*
Y172000D02*
D03*
D19*
X166574Y350181D02*
D03*
X170109Y346645D02*
D03*
X173645Y343109D02*
D03*
X177181Y339574D02*
D03*
X162426Y324819D02*
D03*
X158890Y328355D02*
D03*
X155355Y331891D02*
D03*
X151819Y335426D02*
D03*
D20*
X178691Y325615D02*
D03*
X172287Y319212D02*
D03*
X165885Y312809D02*
D03*
D21*
X188713Y302787D02*
D03*
D22*
X145356Y339356D02*
D03*
X149644Y343644D02*
D03*
D23*
X321500Y148937D02*
D03*
Y155000D02*
D03*
X278500Y185531D02*
D03*
Y179469D02*
D03*
X313000Y148969D02*
D03*
Y155032D02*
D03*
D24*
X143356Y321644D02*
D03*
X147644Y317356D02*
D03*
X148856Y327144D02*
D03*
X153144Y322856D02*
D03*
X190713Y325787D02*
D03*
X195000Y321500D02*
D03*
D25*
X291000Y291201D02*
D03*
Y278799D02*
D03*
D38*
X330500Y140000D02*
D03*
X300000Y292500D02*
D03*
D39*
X150000Y372500D02*
D03*
X160000D02*
D03*
X170000D02*
D03*
X180000D02*
D03*
X190000D02*
D03*
X200000D02*
D03*
X210000D02*
D03*
X220000D02*
D03*
X230000D02*
D03*
X240000D02*
D03*
X250000D02*
D03*
X260000D02*
D03*
X270000D02*
D03*
X280000D02*
D03*
X290000D02*
D03*
X300000D02*
D03*
X310000D02*
D03*
X320000D02*
D03*
X330000D02*
D03*
X340000D02*
D03*
X350000D02*
D03*
X360000D02*
D03*
X140000D02*
D03*
X130000D02*
D03*
X120000D02*
D03*
X372500Y330000D02*
D03*
Y320000D02*
D03*
Y310000D02*
D03*
Y300000D02*
D03*
Y290000D02*
D03*
Y280000D02*
D03*
Y270000D02*
D03*
Y260000D02*
D03*
Y250000D02*
D03*
Y240000D02*
D03*
Y230000D02*
D03*
Y220000D02*
D03*
Y210000D02*
D03*
Y200000D02*
D03*
Y190000D02*
D03*
Y180000D02*
D03*
Y170000D02*
D03*
Y160000D02*
D03*
Y150000D02*
D03*
Y140000D02*
D03*
Y130000D02*
D03*
Y120000D02*
D03*
Y340000D02*
D03*
Y350000D02*
D03*
Y360000D02*
D03*
X330000Y107500D02*
D03*
X320000D02*
D03*
X310000D02*
D03*
X300000D02*
D03*
X290000D02*
D03*
X280000D02*
D03*
X270000D02*
D03*
X260000D02*
D03*
X250000D02*
D03*
X240000D02*
D03*
X230000D02*
D03*
X220000D02*
D03*
X210000D02*
D03*
X200000D02*
D03*
X190000D02*
D03*
X180000D02*
D03*
X170000D02*
D03*
X160000D02*
D03*
X150000D02*
D03*
X140000D02*
D03*
X130000D02*
D03*
X120000D02*
D03*
X340000D02*
D03*
X350000D02*
D03*
X360000D02*
D03*
X107500Y150000D02*
D03*
Y160000D02*
D03*
Y170000D02*
D03*
Y180000D02*
D03*
Y190000D02*
D03*
Y200000D02*
D03*
Y210000D02*
D03*
Y220000D02*
D03*
Y230000D02*
D03*
Y240000D02*
D03*
Y250000D02*
D03*
Y260000D02*
D03*
Y270000D02*
D03*
Y280000D02*
D03*
Y290000D02*
D03*
Y300000D02*
D03*
Y310000D02*
D03*
Y320000D02*
D03*
Y330000D02*
D03*
Y340000D02*
D03*
Y350000D02*
D03*
Y360000D02*
D03*
Y140000D02*
D03*
Y130000D02*
D03*
Y120000D02*
D03*
M02*
