G04*
G04 #@! TF.GenerationSoftware,Altium Limited,Altium Designer,22.1.2 (22)*
G04*
G04 Layer_Color=65535*
%FSLAX25Y25*%
%MOIN*%
G70*
G04*
G04 #@! TF.SameCoordinates,7EB5FEC4-0347-4BB5-A0A8-A435BEEEC189*
G04*
G04*
G04 #@! TF.FilePolarity,Positive*
G04*
G01*
G75*
%ADD10C,0.00984*%
%ADD11C,0.02362*%
%ADD12C,0.00787*%
%ADD13C,0.01000*%
%ADD14C,0.00600*%
G04:AMPARAMS|DCode=15|XSize=11.81mil|YSize=47.24mil|CornerRadius=0mil|HoleSize=0mil|Usage=FLASHONLY|Rotation=45.000|XOffset=0mil|YOffset=0mil|HoleType=Round|Shape=Rectangle|*
%AMROTATEDRECTD15*
4,1,4,0.01253,-0.02088,-0.02088,0.01253,-0.01253,0.02088,0.02088,-0.01253,0.01253,-0.02088,0.0*
%
%ADD15ROTATEDRECTD15*%

D10*
X198760Y277106D02*
X198022Y277533D01*
Y276680D01*
X198760Y277106D01*
X148693Y331807D02*
X147954Y332233D01*
Y331381D01*
X148693Y331807D01*
X182106Y328538D02*
X181368Y328965D01*
Y328112D01*
X182106Y328538D01*
X291492Y274665D02*
X290754Y275092D01*
Y274239D01*
X291492Y274665D01*
D11*
X207716Y273465D02*
X207272Y274388D01*
X206273Y274616D01*
X205471Y273977D01*
Y272952D01*
X206273Y272313D01*
X207272Y272541D01*
X207716Y273465D01*
D12*
X146460Y314141D02*
X147574Y313680D01*
X148688Y314141D01*
X150859Y316312D02*
X151320Y317426D01*
X150859Y318540D01*
X144540Y324859D02*
X143426Y325320D01*
X142312Y324859D01*
X140141Y322688D02*
X139680Y321574D01*
X140141Y320460D01*
X151960Y319641D02*
X153074Y319180D01*
X154188Y319641D01*
X156359Y321812D02*
X156820Y322926D01*
X156359Y324040D01*
X150040Y330359D02*
X148926Y330820D01*
X147812Y330359D01*
X145641Y328188D02*
X145180Y327074D01*
X145641Y325960D01*
X193817Y318285D02*
X194930Y317823D01*
X196044Y318285D01*
X198215Y320456D02*
X198677Y321570D01*
X198215Y322683D01*
X191896Y329003D02*
X190782Y329464D01*
X189669Y329003D01*
X187497Y326831D02*
X187036Y325718D01*
X187497Y324604D01*
X202598Y202598D02*
Y277402D01*
X277402Y202598D02*
Y277402D01*
X202598D02*
X277402D01*
X202598Y202598D02*
X277402D01*
X167075Y326156D02*
X175844Y334925D01*
X153156Y340075D02*
X161925Y348844D01*
X167555Y305293D02*
X186207Y323945D01*
X174793Y298055D02*
X193445Y316707D01*
X186207Y323945D02*
X193445Y316707D01*
X167555Y305293D02*
X174793Y298055D01*
X144986Y335662D02*
X146080Y335682D01*
X141662Y338986D02*
X141682Y340080D01*
X144187Y342586D01*
X149574Y347972D02*
X153972Y343574D01*
X141662Y338986D02*
X144986Y335662D01*
X146414Y344813D02*
X149574Y347972D01*
X146080Y335682D02*
X148586Y338187D01*
X150813Y340414D02*
X153972Y343574D01*
X318390Y145925D02*
Y150394D01*
Y153543D02*
Y158012D01*
X324610Y145925D02*
Y150394D01*
X318390Y158012D02*
X324610D01*
X318390Y145925D02*
X324610D01*
Y153543D02*
Y158012D01*
X281610Y184075D02*
Y188543D01*
X275390Y176457D02*
X281610D01*
X275390Y188543D02*
X281610D01*
Y176457D02*
Y180925D01*
X275390Y184075D02*
Y188543D01*
Y176457D02*
Y180925D01*
X148813Y320586D02*
X150859Y318540D01*
X144540Y324859D02*
X146586Y322813D01*
X140141Y320460D02*
X142187Y318414D01*
X148688Y314141D02*
X150859Y316312D01*
X140141Y322688D02*
X142312Y324859D01*
X144414Y316187D02*
X146460Y314141D01*
X115000Y367500D02*
X365591D01*
X115000D02*
Y377795D01*
X365591Y367500D02*
Y377795D01*
X115000D02*
X365591D01*
X309890Y145957D02*
Y150425D01*
Y153575D02*
Y158043D01*
X316110Y145957D02*
Y150425D01*
X309890Y158043D02*
X316110D01*
X309890Y145957D02*
X316110D01*
Y153575D02*
Y158043D01*
X367500Y114409D02*
Y365000D01*
X377795D01*
X367500Y114409D02*
X377795D01*
Y365000D01*
X114409Y112500D02*
X365000D01*
Y102205D02*
Y112500D01*
X114409Y102205D02*
Y112500D01*
Y102205D02*
X365000D01*
X112500Y115000D02*
Y365591D01*
X102205Y115000D02*
X112500D01*
X102205Y365591D02*
X112500D01*
X102205Y115000D02*
Y365591D01*
X294346Y282047D02*
Y287953D01*
X287653Y282047D02*
Y287953D01*
X154313Y326086D02*
X156359Y324040D01*
X150040Y330359D02*
X152086Y328313D01*
X145641Y325960D02*
X147687Y323914D01*
X154188Y319641D02*
X156359Y321812D01*
X145641Y328188D02*
X147812Y330359D01*
X149914Y321687D02*
X151960Y319641D01*
X196169Y324729D02*
X198215Y322683D01*
X191896Y329003D02*
X193942Y326956D01*
X187497Y324604D02*
X189544Y322558D01*
X196044Y318285D02*
X198215Y320456D01*
X187497Y326831D02*
X189669Y329003D01*
X191771Y320331D02*
X193817Y318285D01*
D13*
X115000Y377500D02*
X145000D01*
X115000Y347000D02*
X145000D01*
X115000D02*
Y377500D01*
X145000Y347000D02*
Y377500D01*
X305000Y102500D02*
X354500D01*
X305000Y133000D02*
X354500D01*
Y102500D02*
Y133000D01*
X305000Y102500D02*
Y133000D01*
X178000Y361000D02*
X361000D01*
X348250Y348250D02*
X361000Y361000D01*
Y137000D02*
Y361000D01*
X119500Y119500D02*
Y343500D01*
Y119500D02*
X132250Y132250D01*
X119500Y119500D02*
X302500D01*
X121665Y362168D02*
X122498Y363001D01*
Y364667D01*
X121665Y365500D01*
X118333D01*
X117500Y364667D01*
Y363001D01*
X118333Y362168D01*
X119999D01*
Y363834D01*
X117500Y360502D02*
X122498D01*
X117500Y357169D01*
X122498D01*
Y355503D02*
X117500D01*
Y353004D01*
X118333Y352171D01*
X121665D01*
X122498Y353004D01*
Y355503D01*
X196000Y291999D02*
Y288666D01*
X196667Y288000D01*
X197999D01*
X198666Y288666D01*
Y291999D01*
X199999Y288000D02*
X201332D01*
X200665D01*
Y291999D01*
X199999Y291332D01*
X289502Y181999D02*
X290834D01*
X290168D01*
Y178001D01*
X289502D01*
X290834D01*
X295500Y181333D02*
X294833Y181999D01*
X293500D01*
X292834Y181333D01*
Y178667D01*
X293500Y178001D01*
X294833D01*
X295500Y178667D01*
X296833Y181333D02*
X297499Y181999D01*
X298832D01*
X299498Y181333D01*
Y180666D01*
X298832Y180000D01*
X298165D01*
X298832D01*
X299498Y179333D01*
Y178667D01*
X298832Y178001D01*
X297499D01*
X296833Y178667D01*
X353002Y283500D02*
Y285499D01*
Y284500D01*
X359000D01*
Y283500D01*
Y285499D01*
X353002Y291497D02*
Y289498D01*
X354002Y288498D01*
X358000D01*
X359000Y289498D01*
Y291497D01*
X358000Y292497D01*
X354002D01*
X353002Y291497D01*
X359000Y302494D02*
Y300495D01*
X353002D01*
Y302494D01*
X359000Y308492D02*
X353002D01*
X356001Y305493D01*
Y309492D01*
X354002Y311491D02*
X353002Y312491D01*
Y314490D01*
X354002Y315490D01*
X355001D01*
X356001Y314490D01*
X357001Y315490D01*
X358000D01*
X359000Y314490D01*
Y312491D01*
X358000Y311491D01*
X357001D01*
X356001Y312491D01*
X355001Y311491D01*
X354002D01*
X356001Y312491D02*
Y314490D01*
X359000Y317489D02*
X358000D01*
Y318489D01*
X359000D01*
Y317489D01*
Y322487D02*
X358000D01*
Y323487D01*
X359000D01*
Y322487D01*
X353002Y327486D02*
Y331485D01*
X354002D01*
X358000Y327486D01*
X359000D01*
X354002Y333484D02*
X353002Y334484D01*
Y336483D01*
X354002Y337483D01*
X355001D01*
X356001Y336483D01*
Y335483D01*
Y336483D01*
X357001Y337483D01*
X358000D01*
X359000Y336483D01*
Y334484D01*
X358000Y333484D01*
X359000Y339482D02*
Y341481D01*
X353002D01*
Y339482D01*
X336000Y353502D02*
X334001D01*
X335000D01*
Y359500D01*
X336000D01*
X334001D01*
X328003Y353502D02*
X330002D01*
X331002Y354502D01*
Y358500D01*
X330002Y359500D01*
X328003D01*
X327003Y358500D01*
Y354502D01*
X328003Y353502D01*
X317006Y359500D02*
X319005D01*
Y353502D01*
X317006D01*
X314007D02*
X310008D01*
Y354502D01*
X314007Y358500D01*
Y359500D01*
X305010D02*
Y353502D01*
X308009Y356501D01*
X304010D01*
X302011Y359500D02*
Y358500D01*
X301011D01*
Y359500D01*
X302011D01*
X297013D02*
Y358500D01*
X296013D01*
Y359500D01*
X297013D01*
X292014Y358500D02*
X291015Y359500D01*
X289015D01*
X288016Y358500D01*
Y354502D01*
X289015Y353502D01*
X291015D01*
X292014Y354502D01*
Y355501D01*
X291015Y356501D01*
X288016D01*
X282017Y353502D02*
X284017Y354502D01*
X286016Y356501D01*
Y358500D01*
X285016Y359500D01*
X283017D01*
X282017Y358500D01*
Y357501D01*
X283017Y356501D01*
X286016D01*
X280018Y359500D02*
X278019D01*
Y353502D01*
X280018D01*
X144500Y126998D02*
X146499D01*
X145500D01*
Y121000D01*
X144500D01*
X146499D01*
X152497Y126998D02*
X150498D01*
X149498Y125998D01*
Y122000D01*
X150498Y121000D01*
X152497D01*
X153497Y122000D01*
Y125998D01*
X152497Y126998D01*
X163494Y121000D02*
X161495D01*
Y126998D01*
X163494D01*
X170492Y121000D02*
X166493D01*
X170492Y124999D01*
Y125998D01*
X169492Y126998D01*
X167493D01*
X166493Y125998D01*
X176490Y126998D02*
X172491D01*
Y123999D01*
X174490Y124999D01*
X175490D01*
X176490Y123999D01*
Y122000D01*
X175490Y121000D01*
X173491D01*
X172491Y122000D01*
X178489Y121000D02*
Y122000D01*
X179489D01*
Y121000D01*
X178489D01*
X183487D02*
Y122000D01*
X184487D01*
Y121000D01*
X183487D01*
X191485D02*
Y126998D01*
X188486Y123999D01*
X192484D01*
X194484Y125998D02*
X195484Y126998D01*
X197483D01*
X198483Y125998D01*
Y124999D01*
X197483Y123999D01*
X196483D01*
X197483D01*
X198483Y122999D01*
Y122000D01*
X197483Y121000D01*
X195484D01*
X194484Y122000D01*
X200482Y121000D02*
X202481D01*
Y126998D01*
X200482D01*
X127498Y197000D02*
X121500D01*
Y194001D01*
X122500Y193001D01*
X126498D01*
X127498Y194001D01*
Y197000D01*
X121500Y191002D02*
X127498D01*
Y188003D01*
X126498Y187003D01*
X124499D01*
X123499Y188003D01*
Y191002D01*
X121500Y177006D02*
Y179006D01*
X127498D01*
Y177006D01*
X121500Y174007D02*
Y172008D01*
Y173008D01*
X127498D01*
X126498Y174007D01*
X121500Y169009D02*
X122500D01*
Y168009D01*
X121500D01*
Y169009D01*
Y164011D02*
X122500D01*
Y163011D01*
X121500D01*
Y164011D01*
Y159012D02*
Y157013D01*
Y158013D01*
X127498D01*
X126498Y159012D01*
X121500Y150015D02*
Y154014D01*
X125499Y150015D01*
X126498D01*
X127498Y151015D01*
Y153014D01*
X126498Y154014D01*
X121500Y148016D02*
Y146017D01*
X127498D01*
Y148016D01*
X142498Y362668D02*
Y366000D01*
X139999D01*
X140832Y364334D01*
Y363501D01*
X139999Y362668D01*
X138333D01*
X137500Y363501D01*
Y365167D01*
X138333Y366000D01*
X142498Y361002D02*
X139166D01*
X137500Y359335D01*
X139166Y357669D01*
X142498D01*
X131165Y365500D02*
X131998Y364667D01*
Y363001D01*
X131165Y362168D01*
X130332D01*
X129499Y363001D01*
Y363834D01*
Y363001D01*
X128666Y362168D01*
X127833D01*
X127000Y363001D01*
Y364667D01*
X127833Y365500D01*
X131998Y360502D02*
X128666D01*
X127000Y358836D01*
X128666Y357169D01*
X131998D01*
X131165Y355503D02*
X131998Y354670D01*
Y353004D01*
X131165Y352171D01*
X130332D01*
X129499Y353004D01*
Y353837D01*
Y353004D01*
X128666Y352171D01*
X127833D01*
X127000Y353004D01*
Y354670D01*
X127833Y355503D01*
X347835Y117832D02*
X347002Y116999D01*
Y115333D01*
X347835Y114500D01*
X348668D01*
X349501Y115333D01*
Y116999D01*
X350334Y117832D01*
X351167D01*
X352000Y116999D01*
Y115333D01*
X351167Y114500D01*
X347835Y122831D02*
X347002Y121998D01*
Y120331D01*
X347835Y119498D01*
X348668D01*
X349501Y120331D01*
Y121998D01*
X350334Y122831D01*
X351167D01*
X352000Y121998D01*
Y120331D01*
X351167Y119498D01*
X338335Y117832D02*
X337502Y116999D01*
Y115333D01*
X338335Y114500D01*
X341667D01*
X342500Y115333D01*
Y116999D01*
X341667Y117832D01*
X337502Y119498D02*
X342500D01*
Y122831D01*
X337502Y124497D02*
X342500D01*
X340834D01*
X337502Y127829D01*
X340001Y125330D01*
X342500Y127829D01*
X332000Y114000D02*
X327002D01*
X328668Y115666D01*
X327002Y117332D01*
X332000D01*
X327002Y118998D02*
Y120665D01*
Y119831D01*
X332000D01*
Y118998D01*
Y120665D01*
X327835Y126496D02*
X327002Y125663D01*
Y123997D01*
X327835Y123164D01*
X328668D01*
X329501Y123997D01*
Y125663D01*
X330334Y126496D01*
X331167D01*
X332000Y125663D01*
Y123997D01*
X331167Y123164D01*
X327002Y130661D02*
Y128995D01*
X327835Y128162D01*
X331167D01*
X332000Y128995D01*
Y130661D01*
X331167Y131494D01*
X327835D01*
X327002Y130661D01*
X322500Y114000D02*
X317502D01*
X319168Y115666D01*
X317502Y117332D01*
X322500D01*
X317502Y121498D02*
Y119831D01*
X318335Y118998D01*
X321667D01*
X322500Y119831D01*
Y121498D01*
X321667Y122331D01*
X318335D01*
X317502Y121498D01*
X318335Y127329D02*
X317502Y126496D01*
Y124830D01*
X318335Y123997D01*
X319168D01*
X320001Y124830D01*
Y126496D01*
X320834Y127329D01*
X321667D01*
X322500Y126496D01*
Y124830D01*
X321667Y123997D01*
X317502Y128995D02*
Y130661D01*
Y129828D01*
X322500D01*
Y128995D01*
Y130661D01*
X313000Y114000D02*
X308002D01*
Y116499D01*
X308835Y117332D01*
X310501D01*
X311334Y116499D01*
Y114000D01*
Y115666D02*
X313000Y117332D01*
X308835Y122331D02*
X308002Y121498D01*
Y119831D01*
X308835Y118998D01*
X309668D01*
X310501Y119831D01*
Y121498D01*
X311334Y122331D01*
X312167D01*
X313000Y121498D01*
Y119831D01*
X312167Y118998D01*
X308002Y123997D02*
Y127329D01*
Y125663D01*
X313000D01*
X175668Y295999D02*
Y292667D01*
X176334Y292001D01*
X177667D01*
X178333Y292667D01*
Y295999D01*
X179666Y295333D02*
X180333Y295999D01*
X181666D01*
X182332Y295333D01*
Y294666D01*
X181666Y294000D01*
X180999D01*
X181666D01*
X182332Y293334D01*
Y292667D01*
X181666Y292001D01*
X180333D01*
X179666Y292667D01*
X131668Y341499D02*
Y337501D01*
X133667D01*
X134334Y338167D01*
Y340833D01*
X133667Y341499D01*
X131668D01*
X138332Y337501D02*
X135667D01*
X138332Y340166D01*
Y340833D01*
X137666Y341499D01*
X136333D01*
X135667Y340833D01*
X319501Y143103D02*
X323499D01*
Y141103D01*
X322833Y140437D01*
X321500D01*
X320834Y141103D01*
Y143103D01*
Y141770D02*
X319501Y140437D01*
Y139104D02*
Y137771D01*
Y138438D01*
X323499D01*
X322833Y139104D01*
X135334Y328833D02*
X134667Y329499D01*
X133334D01*
X132668Y328833D01*
Y326167D01*
X133334Y325501D01*
X134667D01*
X135334Y326167D01*
X136667Y328833D02*
X137333Y329499D01*
X138666D01*
X139332Y328833D01*
Y328166D01*
X138666Y327500D01*
X137999D01*
X138666D01*
X139332Y326834D01*
Y326167D01*
X138666Y325501D01*
X137333D01*
X136667Y326167D01*
X375998Y374499D02*
Y368501D01*
X372999D01*
X372000Y369501D01*
Y371500D01*
X372999Y372500D01*
X375998D01*
X367001Y374499D02*
Y368501D01*
X370000Y371500D01*
X366002D01*
X154742Y355180D02*
Y351848D01*
X155408Y351181D01*
X156741D01*
X157407Y351848D01*
Y355180D01*
X161406Y351181D02*
X158740D01*
X161406Y353847D01*
Y354514D01*
X160740Y355180D01*
X159407D01*
X158740Y354514D01*
X282668Y187501D02*
Y191499D01*
X284667D01*
X285334Y190833D01*
Y189500D01*
X284667Y188833D01*
X282668D01*
X284001D02*
X285334Y187501D01*
X286666Y190833D02*
X287333Y191499D01*
X288666D01*
X289332Y190833D01*
Y190166D01*
X288666Y189500D01*
X287999D01*
X288666D01*
X289332Y188833D01*
Y188167D01*
X288666Y187501D01*
X287333D01*
X286666Y188167D01*
X311001Y143332D02*
X314999D01*
Y141333D01*
X314333Y140666D01*
X313000D01*
X312334Y141333D01*
Y143332D01*
Y141999D02*
X311001Y140666D01*
Y136668D02*
Y139333D01*
X313666Y136668D01*
X314333D01*
X314999Y137334D01*
Y138667D01*
X314333Y139333D01*
X373999Y103002D02*
X368001D01*
Y106001D01*
X369001Y107000D01*
X371000D01*
X372000Y106001D01*
Y103002D01*
X369001Y109000D02*
X368001Y109999D01*
Y111999D01*
X369001Y112998D01*
X370000D01*
X371000Y111999D01*
Y110999D01*
Y111999D01*
X372000Y112998D01*
X372999D01*
X373999Y111999D01*
Y109999D01*
X372999Y109000D01*
X103502Y106001D02*
Y111999D01*
X106501D01*
X107500Y110999D01*
Y109000D01*
X106501Y108000D01*
X103502D01*
X113498Y106001D02*
X109500D01*
X113498Y110000D01*
Y110999D01*
X112499Y111999D01*
X110499D01*
X109500Y110999D01*
X106001Y375499D02*
X111999D01*
Y372500D01*
X110999Y371500D01*
X109000D01*
X108000Y372500D01*
Y375499D01*
X106001Y369501D02*
Y367501D01*
Y368501D01*
X111999D01*
X110999Y369501D01*
X290834Y300999D02*
Y297001D01*
X292834D01*
X293500Y297667D01*
Y300333D01*
X292834Y300999D01*
X290834D01*
X294833Y297001D02*
X296166D01*
X295499D01*
Y300999D01*
X294833Y300333D01*
X135334Y334333D02*
X134667Y334999D01*
X133334D01*
X132668Y334333D01*
Y331667D01*
X133334Y331001D01*
X134667D01*
X135334Y331667D01*
X139332Y331001D02*
X136667D01*
X139332Y333666D01*
Y334333D01*
X138666Y334999D01*
X137333D01*
X136667Y334333D01*
X200500Y317333D02*
X199834Y317999D01*
X198501D01*
X197834Y317333D01*
Y314667D01*
X198501Y314001D01*
X199834D01*
X200500Y314667D01*
X201833Y314001D02*
X203166D01*
X202499D01*
Y317999D01*
X201833Y317333D01*
D14*
X191900Y366900D02*
X190567D01*
X191234D01*
Y362901D01*
X191900Y363568D01*
X188568D02*
X187901Y362901D01*
X186568D01*
X185902Y363568D01*
Y364234D01*
X186568Y364901D01*
X185902Y365567D01*
Y366234D01*
X186568Y366900D01*
X187901D01*
X188568Y366234D01*
Y365567D01*
X187901Y364901D01*
X188568Y364234D01*
Y363568D01*
X187901Y364901D02*
X186568D01*
X309234Y362901D02*
X310567Y363568D01*
X311900Y364901D01*
Y366234D01*
X311234Y366900D01*
X309901D01*
X309234Y366234D01*
Y365567D01*
X309901Y364901D01*
X311900D01*
X361900Y366900D02*
X360567D01*
X361234D01*
Y362901D01*
X361900Y363568D01*
X251900Y366900D02*
X250567D01*
X251234D01*
Y362901D01*
X251900Y363568D01*
X245902Y366900D02*
X248568D01*
X245902Y364234D01*
Y363568D01*
X246568Y362901D01*
X247901D01*
X248568Y363568D01*
X366900Y288100D02*
Y289433D01*
Y288766D01*
X362901D01*
X363568Y288100D01*
Y291432D02*
X362901Y292099D01*
Y293432D01*
X363568Y294098D01*
X364234D01*
X364901Y293432D01*
X365567Y294098D01*
X366234D01*
X366900Y293432D01*
Y292099D01*
X366234Y291432D01*
X365567D01*
X364901Y292099D01*
X364234Y291432D01*
X363568D01*
X364901Y292099D02*
Y293432D01*
X362901Y170766D02*
X363568Y169433D01*
X364901Y168100D01*
X366234D01*
X366900Y168766D01*
Y170099D01*
X366234Y170766D01*
X365567D01*
X364901Y170099D01*
Y168100D01*
X366900Y118100D02*
Y119433D01*
Y118766D01*
X362901D01*
X363568Y118100D01*
X366900Y228100D02*
Y229433D01*
Y228766D01*
X362901D01*
X363568Y228100D01*
X366900Y234098D02*
Y231432D01*
X364234Y234098D01*
X363568D01*
X362901Y233432D01*
Y232099D01*
X363568Y231432D01*
X366605Y350766D02*
Y348100D01*
X363939Y350766D01*
X363273D01*
X362606Y350099D01*
Y348766D01*
X363273Y348100D01*
X366605Y354098D02*
X362606D01*
X364605Y352099D01*
Y354765D01*
X288100Y113100D02*
X289433D01*
X288766D01*
Y117099D01*
X288100Y116432D01*
X291432D02*
X292099Y117099D01*
X293432D01*
X294098Y116432D01*
Y115766D01*
X293432Y115099D01*
X294098Y114433D01*
Y113767D01*
X293432Y113100D01*
X292099D01*
X291432Y113767D01*
Y114433D01*
X292099Y115099D01*
X291432Y115766D01*
Y116432D01*
X292099Y115099D02*
X293432D01*
X170766Y117099D02*
X169433Y116432D01*
X168100Y115099D01*
Y113767D01*
X168766Y113100D01*
X170099D01*
X170766Y113767D01*
Y114433D01*
X170099Y115099D01*
X168100D01*
X118100Y113100D02*
X119433D01*
X118766D01*
Y117099D01*
X118100Y116432D01*
X228100Y113100D02*
X229433D01*
X228766D01*
Y117099D01*
X228100Y116432D01*
X234098Y113100D02*
X231432D01*
X234098Y115766D01*
Y116432D01*
X233432Y117099D01*
X232099D01*
X231432Y116432D01*
X113100Y191900D02*
Y190567D01*
Y191234D01*
X117099D01*
X116432Y191900D01*
Y188568D02*
X117099Y187901D01*
Y186568D01*
X116432Y185902D01*
X115766D01*
X115099Y186568D01*
X114433Y185902D01*
X113766D01*
X113100Y186568D01*
Y187901D01*
X113766Y188568D01*
X114433D01*
X115099Y187901D01*
X115766Y188568D01*
X116432D01*
X115099Y187901D02*
Y186568D01*
X117099Y309234D02*
X116432Y310567D01*
X115099Y311900D01*
X113766D01*
X113100Y311234D01*
Y309901D01*
X113766Y309234D01*
X114433D01*
X115099Y309901D01*
Y311900D01*
X113100Y251900D02*
Y250567D01*
Y251234D01*
X117099D01*
X116432Y251900D01*
X113100Y245902D02*
Y248568D01*
X115766Y245902D01*
X116432D01*
X117099Y246568D01*
Y247901D01*
X116432Y248568D01*
X113395Y129234D02*
Y131900D01*
X116061Y129234D01*
X116727D01*
X117394Y129901D01*
Y131234D01*
X116727Y131900D01*
X113395Y125902D02*
X117394D01*
X115395Y127901D01*
Y125235D01*
D15*
X142419Y336420D02*
D03*
M02*
