G04*
G04 #@! TF.GenerationSoftware,Altium Limited,Altium Designer,22.1.2 (22)*
G04*
G04 Layer_Physical_Order=2*
G04 Layer_Color=16711680*
%FSLAX25Y25*%
%MOIN*%
G70*
G04*
G04 #@! TF.SameCoordinates,7EB5FEC4-0347-4BB5-A0A8-A435BEEEC189*
G04*
G04*
G04 #@! TF.FilePolarity,Positive*
G04*
G01*
G75*
%ADD13C,0.01000*%
%ADD37C,0.00800*%
%ADD38C,0.06000*%
%ADD39C,0.06299*%
%ADD40C,0.03000*%
G36*
X380000Y100000D02*
X100000D01*
Y380000D01*
X380000D01*
Y100000D01*
D02*
G37*
%LPC*%
G36*
X120546Y376650D02*
X120500D01*
Y373000D01*
X124150D01*
Y373046D01*
X123867Y374102D01*
X123320Y375048D01*
X122548Y375820D01*
X121602Y376367D01*
X120546Y376650D01*
D02*
G37*
G36*
X119500D02*
X119454D01*
X118398Y376367D01*
X117452Y375820D01*
X116680Y375048D01*
X116133Y374102D01*
X115850Y373046D01*
Y373000D01*
X119500D01*
Y376650D01*
D02*
G37*
G36*
X360546D02*
X359454D01*
X358398Y376367D01*
X357452Y375820D01*
X356680Y375048D01*
X356133Y374102D01*
X355850Y373046D01*
Y371954D01*
X356133Y370898D01*
X356680Y369952D01*
X357452Y369180D01*
X358398Y368633D01*
X359454Y368350D01*
X360546D01*
X361602Y368633D01*
X362548Y369180D01*
X363320Y369952D01*
X363867Y370898D01*
X364150Y371954D01*
Y373046D01*
X363867Y374102D01*
X363320Y375048D01*
X362548Y375820D01*
X361602Y376367D01*
X360546Y376650D01*
D02*
G37*
G36*
X350546D02*
X349454D01*
X348398Y376367D01*
X347452Y375820D01*
X346679Y375048D01*
X346133Y374102D01*
X345850Y373046D01*
Y371954D01*
X346133Y370898D01*
X346679Y369952D01*
X347452Y369180D01*
X348398Y368633D01*
X349454Y368350D01*
X350546D01*
X351602Y368633D01*
X352548Y369180D01*
X353321Y369952D01*
X353867Y370898D01*
X354150Y371954D01*
Y373046D01*
X353867Y374102D01*
X353321Y375048D01*
X352548Y375820D01*
X351602Y376367D01*
X350546Y376650D01*
D02*
G37*
G36*
X340546D02*
X339454D01*
X338398Y376367D01*
X337452Y375820D01*
X336680Y375048D01*
X336133Y374102D01*
X335850Y373046D01*
Y371954D01*
X336133Y370898D01*
X336680Y369952D01*
X337452Y369180D01*
X338398Y368633D01*
X339454Y368350D01*
X340546D01*
X341602Y368633D01*
X342548Y369180D01*
X343320Y369952D01*
X343867Y370898D01*
X344150Y371954D01*
Y373046D01*
X343867Y374102D01*
X343320Y375048D01*
X342548Y375820D01*
X341602Y376367D01*
X340546Y376650D01*
D02*
G37*
G36*
X330546D02*
X329454D01*
X328398Y376367D01*
X327452Y375820D01*
X326679Y375048D01*
X326133Y374102D01*
X325850Y373046D01*
Y371954D01*
X326133Y370898D01*
X326679Y369952D01*
X327452Y369180D01*
X328398Y368633D01*
X329454Y368350D01*
X330546D01*
X331602Y368633D01*
X332548Y369180D01*
X333320Y369952D01*
X333867Y370898D01*
X334150Y371954D01*
Y373046D01*
X333867Y374102D01*
X333320Y375048D01*
X332548Y375820D01*
X331602Y376367D01*
X330546Y376650D01*
D02*
G37*
G36*
X320546D02*
X319454D01*
X318398Y376367D01*
X317452Y375820D01*
X316680Y375048D01*
X316133Y374102D01*
X315850Y373046D01*
Y371954D01*
X316133Y370898D01*
X316680Y369952D01*
X317452Y369180D01*
X318398Y368633D01*
X319454Y368350D01*
X320546D01*
X321602Y368633D01*
X322548Y369180D01*
X323321Y369952D01*
X323867Y370898D01*
X324150Y371954D01*
Y373046D01*
X323867Y374102D01*
X323321Y375048D01*
X322548Y375820D01*
X321602Y376367D01*
X320546Y376650D01*
D02*
G37*
G36*
X310546D02*
X309454D01*
X308398Y376367D01*
X307452Y375820D01*
X306680Y375048D01*
X306133Y374102D01*
X305850Y373046D01*
Y371954D01*
X306133Y370898D01*
X306680Y369952D01*
X307452Y369180D01*
X308398Y368633D01*
X309454Y368350D01*
X310546D01*
X311602Y368633D01*
X312548Y369180D01*
X313320Y369952D01*
X313867Y370898D01*
X314150Y371954D01*
Y373046D01*
X313867Y374102D01*
X313320Y375048D01*
X312548Y375820D01*
X311602Y376367D01*
X310546Y376650D01*
D02*
G37*
G36*
X300546D02*
X299454D01*
X298398Y376367D01*
X297452Y375820D01*
X296679Y375048D01*
X296133Y374102D01*
X295850Y373046D01*
Y371954D01*
X296133Y370898D01*
X296679Y369952D01*
X297452Y369180D01*
X298398Y368633D01*
X299454Y368350D01*
X300546D01*
X301602Y368633D01*
X302548Y369180D01*
X303321Y369952D01*
X303867Y370898D01*
X304150Y371954D01*
Y373046D01*
X303867Y374102D01*
X303321Y375048D01*
X302548Y375820D01*
X301602Y376367D01*
X300546Y376650D01*
D02*
G37*
G36*
X290546D02*
X289454D01*
X288398Y376367D01*
X287452Y375820D01*
X286680Y375048D01*
X286133Y374102D01*
X285850Y373046D01*
Y371954D01*
X286133Y370898D01*
X286680Y369952D01*
X287452Y369180D01*
X288398Y368633D01*
X289454Y368350D01*
X290546D01*
X291602Y368633D01*
X292548Y369180D01*
X293320Y369952D01*
X293867Y370898D01*
X294150Y371954D01*
Y373046D01*
X293867Y374102D01*
X293320Y375048D01*
X292548Y375820D01*
X291602Y376367D01*
X290546Y376650D01*
D02*
G37*
G36*
X280546D02*
X279454D01*
X278398Y376367D01*
X277452Y375820D01*
X276679Y375048D01*
X276133Y374102D01*
X275850Y373046D01*
Y371954D01*
X276133Y370898D01*
X276679Y369952D01*
X277452Y369180D01*
X278398Y368633D01*
X279454Y368350D01*
X280546D01*
X281602Y368633D01*
X282548Y369180D01*
X283320Y369952D01*
X283867Y370898D01*
X284150Y371954D01*
Y373046D01*
X283867Y374102D01*
X283320Y375048D01*
X282548Y375820D01*
X281602Y376367D01*
X280546Y376650D01*
D02*
G37*
G36*
X270546D02*
X269454D01*
X268398Y376367D01*
X267452Y375820D01*
X266680Y375048D01*
X266133Y374102D01*
X265850Y373046D01*
Y371954D01*
X266133Y370898D01*
X266680Y369952D01*
X267452Y369180D01*
X268398Y368633D01*
X269454Y368350D01*
X270546D01*
X271602Y368633D01*
X272548Y369180D01*
X273321Y369952D01*
X273867Y370898D01*
X274150Y371954D01*
Y373046D01*
X273867Y374102D01*
X273321Y375048D01*
X272548Y375820D01*
X271602Y376367D01*
X270546Y376650D01*
D02*
G37*
G36*
X260546D02*
X259454D01*
X258398Y376367D01*
X257452Y375820D01*
X256680Y375048D01*
X256133Y374102D01*
X255850Y373046D01*
Y371954D01*
X256133Y370898D01*
X256680Y369952D01*
X257452Y369180D01*
X258398Y368633D01*
X259454Y368350D01*
X260546D01*
X261602Y368633D01*
X262548Y369180D01*
X263320Y369952D01*
X263867Y370898D01*
X264150Y371954D01*
Y373046D01*
X263867Y374102D01*
X263320Y375048D01*
X262548Y375820D01*
X261602Y376367D01*
X260546Y376650D01*
D02*
G37*
G36*
X250546D02*
X249454D01*
X248398Y376367D01*
X247452Y375820D01*
X246679Y375048D01*
X246133Y374102D01*
X245850Y373046D01*
Y371954D01*
X246133Y370898D01*
X246679Y369952D01*
X247452Y369180D01*
X248398Y368633D01*
X249454Y368350D01*
X250546D01*
X251602Y368633D01*
X252548Y369180D01*
X253321Y369952D01*
X253867Y370898D01*
X254150Y371954D01*
Y373046D01*
X253867Y374102D01*
X253321Y375048D01*
X252548Y375820D01*
X251602Y376367D01*
X250546Y376650D01*
D02*
G37*
G36*
X240546D02*
X239454D01*
X238398Y376367D01*
X237452Y375820D01*
X236680Y375048D01*
X236133Y374102D01*
X235850Y373046D01*
Y371954D01*
X236133Y370898D01*
X236680Y369952D01*
X237452Y369180D01*
X238398Y368633D01*
X239454Y368350D01*
X240546D01*
X241602Y368633D01*
X242548Y369180D01*
X243320Y369952D01*
X243867Y370898D01*
X244150Y371954D01*
Y373046D01*
X243867Y374102D01*
X243320Y375048D01*
X242548Y375820D01*
X241602Y376367D01*
X240546Y376650D01*
D02*
G37*
G36*
X230546D02*
X229454D01*
X228398Y376367D01*
X227452Y375820D01*
X226679Y375048D01*
X226133Y374102D01*
X225850Y373046D01*
Y371954D01*
X226133Y370898D01*
X226679Y369952D01*
X227452Y369180D01*
X228398Y368633D01*
X229454Y368350D01*
X230546D01*
X231602Y368633D01*
X232548Y369180D01*
X233320Y369952D01*
X233867Y370898D01*
X234150Y371954D01*
Y373046D01*
X233867Y374102D01*
X233320Y375048D01*
X232548Y375820D01*
X231602Y376367D01*
X230546Y376650D01*
D02*
G37*
G36*
X220546D02*
X219454D01*
X218398Y376367D01*
X217452Y375820D01*
X216680Y375048D01*
X216133Y374102D01*
X215850Y373046D01*
Y371954D01*
X216133Y370898D01*
X216680Y369952D01*
X217452Y369180D01*
X218398Y368633D01*
X219454Y368350D01*
X220546D01*
X221602Y368633D01*
X222548Y369180D01*
X223321Y369952D01*
X223867Y370898D01*
X224150Y371954D01*
Y373046D01*
X223867Y374102D01*
X223321Y375048D01*
X222548Y375820D01*
X221602Y376367D01*
X220546Y376650D01*
D02*
G37*
G36*
X210546D02*
X209454D01*
X208398Y376367D01*
X207452Y375820D01*
X206680Y375048D01*
X206133Y374102D01*
X205850Y373046D01*
Y371954D01*
X206133Y370898D01*
X206680Y369952D01*
X207452Y369180D01*
X208398Y368633D01*
X209454Y368350D01*
X210546D01*
X211602Y368633D01*
X212548Y369180D01*
X213320Y369952D01*
X213867Y370898D01*
X214150Y371954D01*
Y373046D01*
X213867Y374102D01*
X213320Y375048D01*
X212548Y375820D01*
X211602Y376367D01*
X210546Y376650D01*
D02*
G37*
G36*
X200546D02*
X199454D01*
X198398Y376367D01*
X197452Y375820D01*
X196679Y375048D01*
X196133Y374102D01*
X195850Y373046D01*
Y371954D01*
X196133Y370898D01*
X196679Y369952D01*
X197452Y369180D01*
X198398Y368633D01*
X199454Y368350D01*
X200546D01*
X201602Y368633D01*
X202548Y369180D01*
X203321Y369952D01*
X203867Y370898D01*
X204150Y371954D01*
Y373046D01*
X203867Y374102D01*
X203321Y375048D01*
X202548Y375820D01*
X201602Y376367D01*
X200546Y376650D01*
D02*
G37*
G36*
X190546D02*
X189454D01*
X188398Y376367D01*
X187452Y375820D01*
X186679Y375048D01*
X186133Y374102D01*
X185850Y373046D01*
Y371954D01*
X186133Y370898D01*
X186679Y369952D01*
X187452Y369180D01*
X188398Y368633D01*
X189454Y368350D01*
X190546D01*
X191602Y368633D01*
X192548Y369180D01*
X193321Y369952D01*
X193867Y370898D01*
X194150Y371954D01*
Y373046D01*
X193867Y374102D01*
X193321Y375048D01*
X192548Y375820D01*
X191602Y376367D01*
X190546Y376650D01*
D02*
G37*
G36*
X180546D02*
X179454D01*
X178398Y376367D01*
X177452Y375820D01*
X176680Y375048D01*
X176133Y374102D01*
X175850Y373046D01*
Y371954D01*
X176133Y370898D01*
X176680Y369952D01*
X177452Y369180D01*
X178398Y368633D01*
X179454Y368350D01*
X180546D01*
X181602Y368633D01*
X182548Y369180D01*
X183320Y369952D01*
X183867Y370898D01*
X184150Y371954D01*
Y373046D01*
X183867Y374102D01*
X183320Y375048D01*
X182548Y375820D01*
X181602Y376367D01*
X180546Y376650D01*
D02*
G37*
G36*
X170546D02*
X169454D01*
X168398Y376367D01*
X167452Y375820D01*
X166680Y375048D01*
X166133Y374102D01*
X165850Y373046D01*
Y371954D01*
X166133Y370898D01*
X166680Y369952D01*
X167452Y369180D01*
X168398Y368633D01*
X169454Y368350D01*
X170546D01*
X171602Y368633D01*
X172548Y369180D01*
X173320Y369952D01*
X173867Y370898D01*
X174150Y371954D01*
Y373046D01*
X173867Y374102D01*
X173320Y375048D01*
X172548Y375820D01*
X171602Y376367D01*
X170546Y376650D01*
D02*
G37*
G36*
X160546D02*
X159454D01*
X158398Y376367D01*
X157452Y375820D01*
X156679Y375048D01*
X156133Y374102D01*
X155850Y373046D01*
Y371954D01*
X156133Y370898D01*
X156679Y369952D01*
X157452Y369180D01*
X158398Y368633D01*
X159454Y368350D01*
X160546D01*
X161602Y368633D01*
X162548Y369180D01*
X163321Y369952D01*
X163867Y370898D01*
X164150Y371954D01*
Y373046D01*
X163867Y374102D01*
X163321Y375048D01*
X162548Y375820D01*
X161602Y376367D01*
X160546Y376650D01*
D02*
G37*
G36*
X150546D02*
X149454D01*
X148398Y376367D01*
X147452Y375820D01*
X146679Y375048D01*
X146133Y374102D01*
X145850Y373046D01*
Y371954D01*
X146133Y370898D01*
X146679Y369952D01*
X147452Y369180D01*
X148398Y368633D01*
X149454Y368350D01*
X150546D01*
X151602Y368633D01*
X152548Y369180D01*
X153321Y369952D01*
X153867Y370898D01*
X154150Y371954D01*
Y373046D01*
X153867Y374102D01*
X153321Y375048D01*
X152548Y375820D01*
X151602Y376367D01*
X150546Y376650D01*
D02*
G37*
G36*
X130546D02*
X129454D01*
X128398Y376367D01*
X127452Y375820D01*
X126680Y375048D01*
X126133Y374102D01*
X125850Y373046D01*
Y371954D01*
X126133Y370898D01*
X126680Y369952D01*
X127452Y369180D01*
X128398Y368633D01*
X129454Y368350D01*
X130546D01*
X131602Y368633D01*
X132548Y369180D01*
X133320Y369952D01*
X133867Y370898D01*
X134150Y371954D01*
Y373046D01*
X133867Y374102D01*
X133320Y375048D01*
X132548Y375820D01*
X131602Y376367D01*
X130546Y376650D01*
D02*
G37*
G36*
X124150Y372000D02*
X120500D01*
Y368350D01*
X120546D01*
X121602Y368633D01*
X122548Y369180D01*
X123320Y369952D01*
X123867Y370898D01*
X124150Y371954D01*
Y372000D01*
D02*
G37*
G36*
X119500D02*
X115850D01*
Y371954D01*
X116133Y370898D01*
X116680Y369952D01*
X117452Y369180D01*
X118398Y368633D01*
X119454Y368350D01*
X119500D01*
Y372000D01*
D02*
G37*
G36*
X240500Y362499D02*
Y360500D01*
X242499D01*
X242119Y361416D01*
X241416Y362119D01*
X240500Y362499D01*
D02*
G37*
G36*
X239500D02*
X238584Y362119D01*
X237881Y361416D01*
X237501Y360500D01*
X239500D01*
Y362499D01*
D02*
G37*
G36*
X160500D02*
Y360500D01*
X162499D01*
X162119Y361416D01*
X161416Y362119D01*
X160500Y362499D01*
D02*
G37*
G36*
X159500D02*
X158584Y362119D01*
X157881Y361416D01*
X157501Y360500D01*
X159500D01*
Y362499D01*
D02*
G37*
G36*
X120500D02*
Y360500D01*
X122499D01*
X122119Y361416D01*
X121416Y362119D01*
X120500Y362499D01*
D02*
G37*
G36*
X119500D02*
X118584Y362119D01*
X117881Y361416D01*
X117501Y360500D01*
X119500D01*
Y362499D01*
D02*
G37*
G36*
X242499Y359500D02*
X240500D01*
Y357501D01*
X241416Y357881D01*
X242119Y358584D01*
X242499Y359500D01*
D02*
G37*
G36*
X239500D02*
X237501D01*
X237881Y358584D01*
X238584Y357881D01*
X239500Y357501D01*
Y359500D01*
D02*
G37*
G36*
X162499D02*
X160500D01*
Y357501D01*
X161416Y357881D01*
X162119Y358584D01*
X162499Y359500D01*
D02*
G37*
G36*
X159500D02*
X157501D01*
X157881Y358584D01*
X158584Y357881D01*
X159500Y357501D01*
Y359500D01*
D02*
G37*
G36*
X122499D02*
X120500D01*
Y357501D01*
X121416Y357881D01*
X122119Y358584D01*
X122499Y359500D01*
D02*
G37*
G36*
X119500D02*
X117501D01*
X117881Y358584D01*
X118584Y357881D01*
X119500Y357501D01*
Y359500D01*
D02*
G37*
G36*
X373046Y364150D02*
X371954D01*
X370898Y363867D01*
X369952Y363320D01*
X369180Y362548D01*
X368633Y361602D01*
X368350Y360546D01*
Y359454D01*
X368633Y358398D01*
X369180Y357452D01*
X369952Y356680D01*
X370898Y356133D01*
X371954Y355850D01*
X373046D01*
X374102Y356133D01*
X375048Y356680D01*
X375820Y357452D01*
X376367Y358398D01*
X376650Y359454D01*
Y360546D01*
X376367Y361602D01*
X375820Y362548D01*
X375048Y363320D01*
X374102Y363867D01*
X373046Y364150D01*
D02*
G37*
G36*
X108046D02*
X106954D01*
X105898Y363867D01*
X104952Y363320D01*
X104180Y362548D01*
X103633Y361602D01*
X103350Y360546D01*
Y359454D01*
X103633Y358398D01*
X104180Y357452D01*
X104952Y356680D01*
X105898Y356133D01*
X106954Y355850D01*
X108046D01*
X109102Y356133D01*
X110048Y356680D01*
X110820Y357452D01*
X111367Y358398D01*
X111650Y359454D01*
Y360546D01*
X111367Y361602D01*
X110820Y362548D01*
X110048Y363320D01*
X109102Y363867D01*
X108046Y364150D01*
D02*
G37*
G36*
X373046Y354150D02*
X371954D01*
X370898Y353867D01*
X369952Y353321D01*
X369180Y352548D01*
X368633Y351602D01*
X368350Y350546D01*
Y349454D01*
X368633Y348398D01*
X369180Y347452D01*
X369952Y346679D01*
X370898Y346133D01*
X371954Y345850D01*
X373046D01*
X374102Y346133D01*
X375048Y346679D01*
X375820Y347452D01*
X376367Y348398D01*
X376650Y349454D01*
Y350546D01*
X376367Y351602D01*
X375820Y352548D01*
X375048Y353321D01*
X374102Y353867D01*
X373046Y354150D01*
D02*
G37*
G36*
X108046D02*
X106954D01*
X105898Y353867D01*
X104952Y353321D01*
X104180Y352548D01*
X103633Y351602D01*
X103350Y350546D01*
Y349454D01*
X103633Y348398D01*
X104180Y347452D01*
X104952Y346679D01*
X105898Y346133D01*
X106954Y345850D01*
X108046D01*
X109102Y346133D01*
X110048Y346679D01*
X110820Y347452D01*
X111367Y348398D01*
X111650Y349454D01*
Y350546D01*
X111367Y351602D01*
X110820Y352548D01*
X110048Y353321D01*
X109102Y353867D01*
X108046Y354150D01*
D02*
G37*
G36*
X350500Y342499D02*
Y340500D01*
X352499D01*
X352119Y341416D01*
X351416Y342119D01*
X350500Y342499D01*
D02*
G37*
G36*
X349500D02*
X348584Y342119D01*
X347881Y341416D01*
X347501Y340500D01*
X349500D01*
Y342499D01*
D02*
G37*
G36*
X330500D02*
Y340500D01*
X332499D01*
X332119Y341416D01*
X331416Y342119D01*
X330500Y342499D01*
D02*
G37*
G36*
X329500D02*
X328584Y342119D01*
X327881Y341416D01*
X327501Y340500D01*
X329500D01*
Y342499D01*
D02*
G37*
G36*
X230500D02*
Y340500D01*
X232499D01*
X232119Y341416D01*
X231416Y342119D01*
X230500Y342499D01*
D02*
G37*
G36*
X229500D02*
X228584Y342119D01*
X227881Y341416D01*
X227501Y340500D01*
X229500D01*
Y342499D01*
D02*
G37*
G36*
X130500D02*
Y340500D01*
X132499D01*
X132119Y341416D01*
X131416Y342119D01*
X130500Y342499D01*
D02*
G37*
G36*
X129500D02*
X128584Y342119D01*
X127881Y341416D01*
X127501Y340500D01*
X129500D01*
Y342499D01*
D02*
G37*
G36*
X352499Y339500D02*
X350500D01*
Y337501D01*
X351416Y337881D01*
X352119Y338584D01*
X352499Y339500D01*
D02*
G37*
G36*
X349500D02*
X347501D01*
X347881Y338584D01*
X348584Y337881D01*
X349500Y337501D01*
Y339500D01*
D02*
G37*
G36*
X332499D02*
X330500D01*
Y337501D01*
X331416Y337881D01*
X332119Y338584D01*
X332499Y339500D01*
D02*
G37*
G36*
X329500D02*
X327501D01*
X327881Y338584D01*
X328584Y337881D01*
X329500Y337501D01*
Y339500D01*
D02*
G37*
G36*
X232499D02*
X230500D01*
Y337501D01*
X231416Y337881D01*
X232119Y338584D01*
X232499Y339500D01*
D02*
G37*
G36*
X229500D02*
X227501D01*
X227881Y338584D01*
X228584Y337881D01*
X229500Y337501D01*
Y339500D01*
D02*
G37*
G36*
X132499D02*
X130500D01*
Y337501D01*
X131416Y337881D01*
X132119Y338584D01*
X132499Y339500D01*
D02*
G37*
G36*
X129500D02*
X127501D01*
X127881Y338584D01*
X128584Y337881D01*
X129500Y337501D01*
Y339500D01*
D02*
G37*
G36*
X373046Y344150D02*
X371954D01*
X370898Y343867D01*
X369952Y343320D01*
X369180Y342548D01*
X368633Y341602D01*
X368350Y340546D01*
Y339454D01*
X368633Y338398D01*
X369180Y337452D01*
X369952Y336680D01*
X370898Y336133D01*
X371954Y335850D01*
X373046D01*
X374102Y336133D01*
X375048Y336680D01*
X375820Y337452D01*
X376367Y338398D01*
X376650Y339454D01*
Y340546D01*
X376367Y341602D01*
X375820Y342548D01*
X375048Y343320D01*
X374102Y343867D01*
X373046Y344150D01*
D02*
G37*
G36*
X108046D02*
X106954D01*
X105898Y343867D01*
X104952Y343320D01*
X104180Y342548D01*
X103633Y341602D01*
X103350Y340546D01*
Y339454D01*
X103633Y338398D01*
X104180Y337452D01*
X104952Y336680D01*
X105898Y336133D01*
X106954Y335850D01*
X108046D01*
X109102Y336133D01*
X110048Y336680D01*
X110820Y337452D01*
X111367Y338398D01*
X111650Y339454D01*
Y340546D01*
X111367Y341602D01*
X110820Y342548D01*
X110048Y343320D01*
X109102Y343867D01*
X108046Y344150D01*
D02*
G37*
G36*
X373046Y334150D02*
X371954D01*
X370898Y333867D01*
X369952Y333320D01*
X369180Y332548D01*
X368633Y331602D01*
X368350Y330546D01*
Y329454D01*
X368633Y328398D01*
X369180Y327452D01*
X369952Y326679D01*
X370898Y326133D01*
X371954Y325850D01*
X373046D01*
X374102Y326133D01*
X375048Y326679D01*
X375820Y327452D01*
X376367Y328398D01*
X376650Y329454D01*
Y330546D01*
X376367Y331602D01*
X375820Y332548D01*
X375048Y333320D01*
X374102Y333867D01*
X373046Y334150D01*
D02*
G37*
G36*
X108046D02*
X106954D01*
X105898Y333867D01*
X104952Y333320D01*
X104180Y332548D01*
X103633Y331602D01*
X103350Y330546D01*
Y329454D01*
X103633Y328398D01*
X104180Y327452D01*
X104952Y326679D01*
X105898Y326133D01*
X106954Y325850D01*
X108046D01*
X109102Y326133D01*
X110048Y326679D01*
X110820Y327452D01*
X111367Y328398D01*
X111650Y329454D01*
Y330546D01*
X111367Y331602D01*
X110820Y332548D01*
X110048Y333320D01*
X109102Y333867D01*
X108046Y334150D01*
D02*
G37*
G36*
X320500Y322499D02*
Y320500D01*
X322499D01*
X322119Y321416D01*
X321416Y322119D01*
X320500Y322499D01*
D02*
G37*
G36*
X319500D02*
X318584Y322119D01*
X317881Y321416D01*
X317501Y320500D01*
X319500D01*
Y322499D01*
D02*
G37*
G36*
X240500D02*
Y320500D01*
X242499D01*
X242119Y321416D01*
X241416Y322119D01*
X240500Y322499D01*
D02*
G37*
G36*
X239500D02*
X238584Y322119D01*
X237881Y321416D01*
X237501Y320500D01*
X239500D01*
Y322499D01*
D02*
G37*
G36*
X120500D02*
Y320500D01*
X122499D01*
X122119Y321416D01*
X121416Y322119D01*
X120500Y322499D01*
D02*
G37*
G36*
X119500D02*
X118584Y322119D01*
X117881Y321416D01*
X117501Y320500D01*
X119500D01*
Y322499D01*
D02*
G37*
G36*
X322499Y319500D02*
X320500D01*
Y317501D01*
X321416Y317881D01*
X322119Y318584D01*
X322499Y319500D01*
D02*
G37*
G36*
X319500D02*
X317501D01*
X317881Y318584D01*
X318584Y317881D01*
X319500Y317501D01*
Y319500D01*
D02*
G37*
G36*
X242499D02*
X240500D01*
Y317501D01*
X241416Y317881D01*
X242119Y318584D01*
X242499Y319500D01*
D02*
G37*
G36*
X239500D02*
X237501D01*
X237881Y318584D01*
X238584Y317881D01*
X239500Y317501D01*
Y319500D01*
D02*
G37*
G36*
X122499D02*
X120500D01*
Y317501D01*
X121416Y317881D01*
X122119Y318584D01*
X122499Y319500D01*
D02*
G37*
G36*
X119500D02*
X117501D01*
X117881Y318584D01*
X118584Y317881D01*
X119500Y317501D01*
Y319500D01*
D02*
G37*
G36*
X373046Y324150D02*
X371954D01*
X370898Y323867D01*
X369952Y323321D01*
X369180Y322548D01*
X368633Y321602D01*
X368350Y320546D01*
Y319454D01*
X368633Y318398D01*
X369180Y317452D01*
X369952Y316680D01*
X370898Y316133D01*
X371954Y315850D01*
X373046D01*
X374102Y316133D01*
X375048Y316680D01*
X375820Y317452D01*
X376367Y318398D01*
X376650Y319454D01*
Y320546D01*
X376367Y321602D01*
X375820Y322548D01*
X375048Y323321D01*
X374102Y323867D01*
X373046Y324150D01*
D02*
G37*
G36*
X108046D02*
X106954D01*
X105898Y323867D01*
X104952Y323321D01*
X104180Y322548D01*
X103633Y321602D01*
X103350Y320546D01*
Y319454D01*
X103633Y318398D01*
X104180Y317452D01*
X104952Y316680D01*
X105898Y316133D01*
X106954Y315850D01*
X108046D01*
X109102Y316133D01*
X110048Y316680D01*
X110820Y317452D01*
X111367Y318398D01*
X111650Y319454D01*
Y320546D01*
X111367Y321602D01*
X110820Y322548D01*
X110048Y323321D01*
X109102Y323867D01*
X108046Y324150D01*
D02*
G37*
G36*
X140546Y376650D02*
X139454D01*
X138398Y376367D01*
X137452Y375820D01*
X136679Y375048D01*
X136133Y374102D01*
X135850Y373046D01*
Y371954D01*
X136133Y370898D01*
X136679Y369952D01*
X137452Y369180D01*
X138398Y368633D01*
X138471Y368614D01*
Y331607D01*
X138587Y331021D01*
X138919Y330525D01*
X152107Y317337D01*
Y316503D01*
X152487Y315584D01*
X153191Y314881D01*
X154109Y314500D01*
X155104D01*
X156023Y314881D01*
X156726Y315584D01*
X157107Y316503D01*
Y317497D01*
X156726Y318416D01*
X156023Y319119D01*
X155104Y319500D01*
X154270D01*
X141529Y332240D01*
Y368614D01*
X141602Y368633D01*
X142548Y369180D01*
X143321Y369952D01*
X143867Y370898D01*
X144150Y371954D01*
Y373046D01*
X143867Y374102D01*
X143321Y375048D01*
X142548Y375820D01*
X141602Y376367D01*
X140546Y376650D01*
D02*
G37*
G36*
X373046Y314150D02*
X371954D01*
X370898Y313867D01*
X369952Y313320D01*
X369180Y312548D01*
X368633Y311602D01*
X368350Y310546D01*
Y309454D01*
X368633Y308398D01*
X369180Y307452D01*
X369952Y306680D01*
X370898Y306133D01*
X371954Y305850D01*
X373046D01*
X374102Y306133D01*
X375048Y306680D01*
X375820Y307452D01*
X376367Y308398D01*
X376650Y309454D01*
Y310546D01*
X376367Y311602D01*
X375820Y312548D01*
X375048Y313320D01*
X374102Y313867D01*
X373046Y314150D01*
D02*
G37*
G36*
X108046D02*
X106954D01*
X105898Y313867D01*
X104952Y313320D01*
X104180Y312548D01*
X103633Y311602D01*
X103350Y310546D01*
Y309454D01*
X103633Y308398D01*
X104180Y307452D01*
X104952Y306680D01*
X105898Y306133D01*
X106954Y305850D01*
X108046D01*
X109102Y306133D01*
X110048Y306680D01*
X110820Y307452D01*
X111367Y308398D01*
X111650Y309454D01*
Y310546D01*
X111367Y311602D01*
X110820Y312548D01*
X110048Y313320D01*
X109102Y313867D01*
X108046Y314150D01*
D02*
G37*
G36*
X310500Y302499D02*
Y300500D01*
X312499D01*
X312119Y301416D01*
X311416Y302119D01*
X310500Y302499D01*
D02*
G37*
G36*
X309500D02*
X308584Y302119D01*
X307881Y301416D01*
X307501Y300500D01*
X309500D01*
Y302499D01*
D02*
G37*
G36*
X290500D02*
Y300500D01*
X292499D01*
X292119Y301416D01*
X291416Y302119D01*
X290500Y302499D01*
D02*
G37*
G36*
X289500D02*
X288584Y302119D01*
X287881Y301416D01*
X287501Y300500D01*
X289500D01*
Y302499D01*
D02*
G37*
G36*
X230500D02*
Y300500D01*
X232499D01*
X232119Y301416D01*
X231416Y302119D01*
X230500Y302499D01*
D02*
G37*
G36*
X229500D02*
X228584Y302119D01*
X227881Y301416D01*
X227501Y300500D01*
X229500D01*
Y302499D01*
D02*
G37*
G36*
X312499Y299500D02*
X310500D01*
Y297501D01*
X311416Y297881D01*
X312119Y298584D01*
X312499Y299500D01*
D02*
G37*
G36*
X309500D02*
X307501D01*
X307881Y298584D01*
X308584Y297881D01*
X309500Y297501D01*
Y299500D01*
D02*
G37*
G36*
X292499D02*
X290500D01*
Y297501D01*
X291416Y297881D01*
X292119Y298584D01*
X292499Y299500D01*
D02*
G37*
G36*
X289500D02*
X287501D01*
X287881Y298584D01*
X288584Y297881D01*
X289500Y297501D01*
Y299500D01*
D02*
G37*
G36*
X232499D02*
X230500D01*
Y297501D01*
X231416Y297881D01*
X232119Y298584D01*
X232499Y299500D01*
D02*
G37*
G36*
X229500D02*
X227501D01*
X227881Y298584D01*
X228584Y297881D01*
X229500Y297501D01*
Y299500D01*
D02*
G37*
G36*
X373046Y304150D02*
X371954D01*
X370898Y303867D01*
X369952Y303321D01*
X369180Y302548D01*
X368633Y301602D01*
X368350Y300546D01*
Y299454D01*
X368633Y298398D01*
X369180Y297452D01*
X369952Y296679D01*
X370898Y296133D01*
X371954Y295850D01*
X373046D01*
X374102Y296133D01*
X375048Y296679D01*
X375820Y297452D01*
X376367Y298398D01*
X376650Y299454D01*
Y300546D01*
X376367Y301602D01*
X375820Y302548D01*
X375048Y303321D01*
X374102Y303867D01*
X373046Y304150D01*
D02*
G37*
G36*
X108046D02*
X106954D01*
X105898Y303867D01*
X104952Y303321D01*
X104180Y302548D01*
X103633Y301602D01*
X103350Y300546D01*
Y299454D01*
X103633Y298398D01*
X104180Y297452D01*
X104952Y296679D01*
X105898Y296133D01*
X106954Y295850D01*
X108046D01*
X109102Y296133D01*
X110048Y296679D01*
X110820Y297452D01*
X111367Y298398D01*
X111650Y299454D01*
Y300546D01*
X111367Y301602D01*
X110820Y302548D01*
X110048Y303321D01*
X109102Y303867D01*
X108046Y304150D01*
D02*
G37*
G36*
X300527Y296500D02*
X299473D01*
X298456Y296227D01*
X297544Y295701D01*
X296799Y294956D01*
X296273Y294044D01*
X296000Y293027D01*
Y291973D01*
X296273Y290956D01*
X296799Y290044D01*
X297544Y289299D01*
X298456Y288773D01*
X299473Y288500D01*
X300527D01*
X301544Y288773D01*
X302456Y289299D01*
X303201Y290044D01*
X303727Y290956D01*
X304000Y291973D01*
Y293027D01*
X303727Y294044D01*
X303201Y294956D01*
X302456Y295701D01*
X301544Y296227D01*
X300527Y296500D01*
D02*
G37*
G36*
X373046Y294150D02*
X371954D01*
X370898Y293867D01*
X369952Y293320D01*
X369180Y292548D01*
X368633Y291602D01*
X368350Y290546D01*
Y289454D01*
X368633Y288398D01*
X369180Y287452D01*
X369952Y286680D01*
X370898Y286133D01*
X371954Y285850D01*
X373046D01*
X374102Y286133D01*
X375048Y286680D01*
X375820Y287452D01*
X376367Y288398D01*
X376650Y289454D01*
Y290546D01*
X376367Y291602D01*
X375820Y292548D01*
X375048Y293320D01*
X374102Y293867D01*
X373046Y294150D01*
D02*
G37*
G36*
X108046D02*
X106954D01*
X105898Y293867D01*
X104952Y293320D01*
X104180Y292548D01*
X103633Y291602D01*
X103350Y290546D01*
Y289454D01*
X103633Y288398D01*
X104180Y287452D01*
X104952Y286680D01*
X105898Y286133D01*
X106954Y285850D01*
X108046D01*
X109102Y286133D01*
X110048Y286680D01*
X110820Y287452D01*
X111367Y288398D01*
X111650Y289454D01*
Y290546D01*
X111367Y291602D01*
X110820Y292548D01*
X110048Y293320D01*
X109102Y293867D01*
X108046Y294150D01*
D02*
G37*
G36*
X200500Y282499D02*
Y280500D01*
X202499D01*
X202119Y281416D01*
X201416Y282119D01*
X200500Y282499D01*
D02*
G37*
G36*
X199500D02*
X198584Y282119D01*
X197881Y281416D01*
X197501Y280500D01*
X199500D01*
Y282499D01*
D02*
G37*
G36*
X160500D02*
Y280500D01*
X162499D01*
X162119Y281416D01*
X161416Y282119D01*
X160500Y282499D01*
D02*
G37*
G36*
X159500D02*
X158584Y282119D01*
X157881Y281416D01*
X157501Y280500D01*
X159500D01*
Y282499D01*
D02*
G37*
G36*
X120500D02*
Y280500D01*
X122499D01*
X122119Y281416D01*
X121416Y282119D01*
X120500Y282499D01*
D02*
G37*
G36*
X119500D02*
X118584Y282119D01*
X117881Y281416D01*
X117501Y280500D01*
X119500D01*
Y282499D01*
D02*
G37*
G36*
X202499Y279500D02*
X200500D01*
Y277501D01*
X201416Y277881D01*
X202119Y278584D01*
X202499Y279500D01*
D02*
G37*
G36*
X166497Y338000D02*
X165503D01*
X164584Y337619D01*
X163881Y336916D01*
X163500Y335997D01*
Y335003D01*
X163881Y334084D01*
X164471Y333494D01*
Y303000D01*
X164587Y302415D01*
X164919Y301919D01*
X206000Y260837D01*
Y260003D01*
X206381Y259084D01*
X206971Y258494D01*
Y219506D01*
X206381Y218916D01*
X206000Y217997D01*
Y217003D01*
X206381Y216084D01*
X207084Y215381D01*
X208003Y215000D01*
X208837D01*
X215919Y207919D01*
X216415Y207587D01*
X217000Y207471D01*
X223994D01*
X224584Y206881D01*
X225503Y206500D01*
X226497D01*
X227416Y206881D01*
X228006Y207471D01*
X242994D01*
X243584Y206881D01*
X244503Y206500D01*
X245497D01*
X246416Y206881D01*
X247006Y207471D01*
X260866D01*
X276000Y192337D01*
Y191503D01*
X276381Y190584D01*
X277084Y189881D01*
X278003Y189500D01*
X278997D01*
X279916Y189881D01*
X280608Y190573D01*
X286909D01*
X300500Y176981D01*
Y176003D01*
X300881Y175084D01*
X301584Y174381D01*
X302503Y174000D01*
X303497D01*
X304416Y174381D01*
X305119Y175084D01*
X305500Y176003D01*
Y176997D01*
X305119Y177916D01*
X304416Y178619D01*
X303497Y179000D01*
X302519D01*
X288509Y193009D01*
X288046Y193319D01*
X287500Y193427D01*
X287500Y193427D01*
X280608D01*
X279916Y194119D01*
X278997Y194500D01*
X278163D01*
X263663Y209000D01*
X272774Y218111D01*
X273106Y218608D01*
X273222Y219193D01*
Y234800D01*
X273416Y234881D01*
X274119Y235584D01*
X274500Y236503D01*
Y237497D01*
X274119Y238416D01*
X273416Y239119D01*
X273222Y239200D01*
Y256687D01*
X273812Y257277D01*
X274193Y258196D01*
Y259190D01*
X273812Y260109D01*
X273222Y260699D01*
Y262307D01*
X273106Y262892D01*
X272774Y263388D01*
X269163Y267000D01*
X270663Y268500D01*
X271497D01*
X272416Y268881D01*
X273119Y269584D01*
X273500Y270503D01*
Y271497D01*
X273119Y272416D01*
X272416Y273119D01*
X271497Y273500D01*
X270503D01*
X269584Y273119D01*
X268881Y272416D01*
X268500Y271497D01*
Y270663D01*
X267000Y269163D01*
X262081Y274081D01*
X261585Y274413D01*
X261000Y274529D01*
X248506D01*
X247916Y275119D01*
X246997Y275500D01*
X246003D01*
X245084Y275119D01*
X244494Y274529D01*
X227006D01*
X226416Y275119D01*
X225497Y275500D01*
X224503D01*
X223584Y275119D01*
X222881Y274416D01*
X222500Y273497D01*
Y272503D01*
X222881Y271584D01*
X223471Y270994D01*
Y268731D01*
X223456Y268727D01*
X222544Y268201D01*
X221799Y267456D01*
X221273Y266544D01*
X221000Y265527D01*
Y264473D01*
X221273Y263456D01*
X221799Y262544D01*
X222544Y261799D01*
X223456Y261273D01*
X224473Y261000D01*
X225527D01*
X226544Y261273D01*
X227456Y261799D01*
X228201Y262544D01*
X228727Y263456D01*
X228750Y263540D01*
X229250D01*
X229273Y263456D01*
X229536Y263000D01*
X229529Y262902D01*
X229296Y262415D01*
X228584Y262119D01*
X227881Y261416D01*
X227501Y260500D01*
X232499D01*
X232833Y261000D01*
X233527D01*
X234544Y261273D01*
X235456Y261799D01*
X236201Y262544D01*
X236727Y263456D01*
X237000Y264473D01*
Y265527D01*
X236727Y266544D01*
X236720Y266557D01*
X238134Y267971D01*
X257494D01*
X258084Y267381D01*
X259003Y267000D01*
X259837D01*
X266471Y260367D01*
Y245006D01*
X265881Y244416D01*
X265500Y243497D01*
Y242503D01*
X265881Y241584D01*
X266471Y240994D01*
Y220133D01*
X259866Y213529D01*
X241653D01*
X241603Y213579D01*
X241107Y213910D01*
X240522Y214027D01*
X222506D01*
X221916Y214617D01*
X220997Y214997D01*
X220003D01*
X219084Y214617D01*
X218877Y214409D01*
X218253D01*
X213029Y219634D01*
Y221494D01*
X213619Y222084D01*
X214000Y223003D01*
Y223997D01*
X213619Y224916D01*
X213029Y225506D01*
Y262500D01*
X212913Y263085D01*
X212581Y263581D01*
X198993Y277170D01*
X199276Y277594D01*
X199500Y277501D01*
Y279500D01*
X197501D01*
X197594Y279276D01*
X197170Y278993D01*
X182029Y294133D01*
Y308994D01*
X182619Y309584D01*
X183000Y310503D01*
Y311497D01*
X182619Y312416D01*
X181916Y313119D01*
X180997Y313500D01*
X180003D01*
X179084Y313119D01*
X178381Y312416D01*
X178000Y311497D01*
Y310503D01*
X178381Y309584D01*
X178971Y308994D01*
Y293500D01*
X179087Y292915D01*
X179352Y292518D01*
X178964Y292199D01*
X167529Y303633D01*
Y333494D01*
X168119Y334084D01*
X168500Y335003D01*
Y335997D01*
X168119Y336916D01*
X167416Y337619D01*
X166497Y338000D01*
D02*
G37*
G36*
X162499Y279500D02*
X160500D01*
Y277501D01*
X161416Y277881D01*
X162119Y278584D01*
X162499Y279500D01*
D02*
G37*
G36*
X159500D02*
X157501D01*
X157881Y278584D01*
X158584Y277881D01*
X159500Y277501D01*
Y279500D01*
D02*
G37*
G36*
X122499D02*
X120500D01*
Y277501D01*
X121416Y277881D01*
X122119Y278584D01*
X122499Y279500D01*
D02*
G37*
G36*
X119500D02*
X117501D01*
X117881Y278584D01*
X118584Y277881D01*
X119500Y277501D01*
Y279500D01*
D02*
G37*
G36*
X373046Y284150D02*
X371954D01*
X370898Y283867D01*
X369952Y283320D01*
X369180Y282548D01*
X368633Y281602D01*
X368350Y280546D01*
Y279454D01*
X368633Y278398D01*
X369180Y277452D01*
X369952Y276679D01*
X370898Y276133D01*
X371954Y275850D01*
X373046D01*
X374102Y276133D01*
X375048Y276679D01*
X375820Y277452D01*
X376367Y278398D01*
X376650Y279454D01*
Y280546D01*
X376367Y281602D01*
X375820Y282548D01*
X375048Y283320D01*
X374102Y283867D01*
X373046Y284150D01*
D02*
G37*
G36*
X108046D02*
X106954D01*
X105898Y283867D01*
X104952Y283320D01*
X104180Y282548D01*
X103633Y281602D01*
X103350Y280546D01*
Y279454D01*
X103633Y278398D01*
X104180Y277452D01*
X104952Y276679D01*
X105898Y276133D01*
X106954Y275850D01*
X108046D01*
X109102Y276133D01*
X110048Y276679D01*
X110820Y277452D01*
X111367Y278398D01*
X111650Y279454D01*
Y280546D01*
X111367Y281602D01*
X110820Y282548D01*
X110048Y283320D01*
X109102Y283867D01*
X108046Y284150D01*
D02*
G37*
G36*
X373046Y274150D02*
X371954D01*
X370898Y273867D01*
X369952Y273321D01*
X369180Y272548D01*
X368633Y271602D01*
X368350Y270546D01*
Y269454D01*
X368633Y268398D01*
X369180Y267452D01*
X369952Y266680D01*
X370898Y266133D01*
X371954Y265850D01*
X373046D01*
X374102Y266133D01*
X375048Y266680D01*
X375820Y267452D01*
X376367Y268398D01*
X376650Y269454D01*
Y270546D01*
X376367Y271602D01*
X375820Y272548D01*
X375048Y273321D01*
X374102Y273867D01*
X373046Y274150D01*
D02*
G37*
G36*
X108046D02*
X106954D01*
X105898Y273867D01*
X104952Y273321D01*
X104180Y272548D01*
X103633Y271602D01*
X103350Y270546D01*
Y269454D01*
X103633Y268398D01*
X104180Y267452D01*
X104952Y266680D01*
X105898Y266133D01*
X106954Y265850D01*
X108046D01*
X109102Y266133D01*
X110048Y266680D01*
X110820Y267452D01*
X111367Y268398D01*
X111650Y269454D01*
Y270546D01*
X111367Y271602D01*
X110820Y272548D01*
X110048Y273321D01*
X109102Y273867D01*
X108046Y274150D01*
D02*
G37*
G36*
X250500Y262499D02*
Y260500D01*
X252499D01*
X252119Y261416D01*
X251416Y262119D01*
X250500Y262499D01*
D02*
G37*
G36*
X249500D02*
X248584Y262119D01*
X247881Y261416D01*
X247501Y260500D01*
X249500D01*
Y262499D01*
D02*
G37*
G36*
X130500D02*
Y260500D01*
X132499D01*
X132119Y261416D01*
X131416Y262119D01*
X130500Y262499D01*
D02*
G37*
G36*
X129500D02*
X128584Y262119D01*
X127881Y261416D01*
X127501Y260500D01*
X129500D01*
Y262499D01*
D02*
G37*
G36*
X252499Y259500D02*
X250500D01*
Y257501D01*
X251416Y257881D01*
X252119Y258584D01*
X252499Y259500D01*
D02*
G37*
G36*
X249500D02*
X247501D01*
X247881Y258584D01*
X248584Y257881D01*
X249500Y257501D01*
Y259500D01*
D02*
G37*
G36*
X232499D02*
X230500D01*
Y257501D01*
X231416Y257881D01*
X232119Y258584D01*
X232499Y259500D01*
D02*
G37*
G36*
X229500D02*
X227501D01*
X227881Y258584D01*
X228584Y257881D01*
X229500Y257501D01*
Y259500D01*
D02*
G37*
G36*
X132499D02*
X130500D01*
Y257501D01*
X131416Y257881D01*
X132119Y258584D01*
X132499Y259500D01*
D02*
G37*
G36*
X129500D02*
X127501D01*
X127881Y258584D01*
X128584Y257881D01*
X129500Y257501D01*
Y259500D01*
D02*
G37*
G36*
X373046Y264150D02*
X371954D01*
X370898Y263867D01*
X369952Y263320D01*
X369180Y262548D01*
X368633Y261602D01*
X368350Y260546D01*
Y259454D01*
X368633Y258398D01*
X369180Y257452D01*
X369952Y256680D01*
X370898Y256133D01*
X371954Y255850D01*
X373046D01*
X374102Y256133D01*
X375048Y256680D01*
X375820Y257452D01*
X376367Y258398D01*
X376650Y259454D01*
Y260546D01*
X376367Y261602D01*
X375820Y262548D01*
X375048Y263320D01*
X374102Y263867D01*
X373046Y264150D01*
D02*
G37*
G36*
X108046D02*
X106954D01*
X105898Y263867D01*
X104952Y263320D01*
X104180Y262548D01*
X103633Y261602D01*
X103350Y260546D01*
Y259454D01*
X103633Y258398D01*
X104180Y257452D01*
X104952Y256680D01*
X105898Y256133D01*
X106954Y255850D01*
X108046D01*
X109102Y256133D01*
X110048Y256680D01*
X110820Y257452D01*
X111367Y258398D01*
X111650Y259454D01*
Y260546D01*
X111367Y261602D01*
X110820Y262548D01*
X110048Y263320D01*
X109102Y263867D01*
X108046Y264150D01*
D02*
G37*
G36*
X373046Y254150D02*
X371954D01*
X370898Y253867D01*
X369952Y253321D01*
X369180Y252548D01*
X368633Y251602D01*
X368350Y250546D01*
Y249454D01*
X368633Y248398D01*
X369180Y247452D01*
X369952Y246679D01*
X370898Y246133D01*
X371954Y245850D01*
X373046D01*
X374102Y246133D01*
X375048Y246679D01*
X375820Y247452D01*
X376367Y248398D01*
X376650Y249454D01*
Y250546D01*
X376367Y251602D01*
X375820Y252548D01*
X375048Y253321D01*
X374102Y253867D01*
X373046Y254150D01*
D02*
G37*
G36*
X108046D02*
X106954D01*
X105898Y253867D01*
X104952Y253321D01*
X104180Y252548D01*
X103633Y251602D01*
X103350Y250546D01*
Y249454D01*
X103633Y248398D01*
X104180Y247452D01*
X104952Y246679D01*
X105898Y246133D01*
X106954Y245850D01*
X108046D01*
X109102Y246133D01*
X110048Y246679D01*
X110820Y247452D01*
X111367Y248398D01*
X111650Y249454D01*
Y250546D01*
X111367Y251602D01*
X110820Y252548D01*
X110048Y253321D01*
X109102Y253867D01*
X108046Y254150D01*
D02*
G37*
G36*
X260500Y242499D02*
Y240500D01*
X262499D01*
X262119Y241416D01*
X261416Y242119D01*
X260500Y242499D01*
D02*
G37*
G36*
X259500D02*
X258584Y242119D01*
X257881Y241416D01*
X257501Y240500D01*
X259500D01*
Y242499D01*
D02*
G37*
G36*
X240500D02*
Y240500D01*
X242499D01*
X242119Y241416D01*
X241416Y242119D01*
X240500Y242499D01*
D02*
G37*
G36*
X239500D02*
X238584Y242119D01*
X237881Y241416D01*
X237501Y240500D01*
X239500D01*
Y242499D01*
D02*
G37*
G36*
X220500D02*
Y240500D01*
X222499D01*
X222119Y241416D01*
X221416Y242119D01*
X220500Y242499D01*
D02*
G37*
G36*
X219500D02*
X218584Y242119D01*
X217881Y241416D01*
X217501Y240500D01*
X219500D01*
Y242499D01*
D02*
G37*
G36*
X120500D02*
Y240500D01*
X122499D01*
X122119Y241416D01*
X121416Y242119D01*
X120500Y242499D01*
D02*
G37*
G36*
X119500D02*
X118584Y242119D01*
X117881Y241416D01*
X117501Y240500D01*
X119500D01*
Y242499D01*
D02*
G37*
G36*
X262499Y239500D02*
X260500D01*
Y237501D01*
X261416Y237881D01*
X262119Y238584D01*
X262499Y239500D01*
D02*
G37*
G36*
X259500D02*
X257501D01*
X257881Y238584D01*
X258584Y237881D01*
X259500Y237501D01*
Y239500D01*
D02*
G37*
G36*
X242499D02*
X240500D01*
Y237501D01*
X241416Y237881D01*
X242119Y238584D01*
X242499Y239500D01*
D02*
G37*
G36*
X239500D02*
X237501D01*
X237881Y238584D01*
X238584Y237881D01*
X239500Y237501D01*
Y239500D01*
D02*
G37*
G36*
X222499D02*
X220500D01*
Y237501D01*
X221416Y237881D01*
X222119Y238584D01*
X222499Y239500D01*
D02*
G37*
G36*
X219500D02*
X217501D01*
X217881Y238584D01*
X218584Y237881D01*
X219500Y237501D01*
Y239500D01*
D02*
G37*
G36*
X122499D02*
X120500D01*
Y237501D01*
X121416Y237881D01*
X122119Y238584D01*
X122499Y239500D01*
D02*
G37*
G36*
X119500D02*
X117501D01*
X117881Y238584D01*
X118584Y237881D01*
X119500Y237501D01*
Y239500D01*
D02*
G37*
G36*
X373046Y244150D02*
X371954D01*
X370898Y243867D01*
X369952Y243320D01*
X369180Y242548D01*
X368633Y241602D01*
X368350Y240546D01*
Y239454D01*
X368633Y238398D01*
X369180Y237452D01*
X369952Y236680D01*
X370898Y236133D01*
X371954Y235850D01*
X373046D01*
X374102Y236133D01*
X375048Y236680D01*
X375820Y237452D01*
X376367Y238398D01*
X376650Y239454D01*
Y240546D01*
X376367Y241602D01*
X375820Y242548D01*
X375048Y243320D01*
X374102Y243867D01*
X373046Y244150D01*
D02*
G37*
G36*
X108046D02*
X106954D01*
X105898Y243867D01*
X104952Y243320D01*
X104180Y242548D01*
X103633Y241602D01*
X103350Y240546D01*
Y239454D01*
X103633Y238398D01*
X104180Y237452D01*
X104952Y236680D01*
X105898Y236133D01*
X106954Y235850D01*
X108046D01*
X109102Y236133D01*
X110048Y236680D01*
X110820Y237452D01*
X111367Y238398D01*
X111650Y239454D01*
Y240546D01*
X111367Y241602D01*
X110820Y242548D01*
X110048Y243320D01*
X109102Y243867D01*
X108046Y244150D01*
D02*
G37*
G36*
X373046Y234150D02*
X371954D01*
X370898Y233867D01*
X369952Y233320D01*
X369180Y232548D01*
X368633Y231602D01*
X368350Y230546D01*
Y229454D01*
X368633Y228398D01*
X369180Y227452D01*
X369952Y226679D01*
X370898Y226133D01*
X371954Y225850D01*
X373046D01*
X374102Y226133D01*
X375048Y226679D01*
X375820Y227452D01*
X376367Y228398D01*
X376650Y229454D01*
Y230546D01*
X376367Y231602D01*
X375820Y232548D01*
X375048Y233320D01*
X374102Y233867D01*
X373046Y234150D01*
D02*
G37*
G36*
X108046D02*
X106954D01*
X105898Y233867D01*
X104952Y233320D01*
X104180Y232548D01*
X103633Y231602D01*
X103350Y230546D01*
Y229454D01*
X103633Y228398D01*
X104180Y227452D01*
X104952Y226679D01*
X105898Y226133D01*
X106954Y225850D01*
X108046D01*
X109102Y226133D01*
X110048Y226679D01*
X110820Y227452D01*
X111367Y228398D01*
X111650Y229454D01*
Y230546D01*
X111367Y231602D01*
X110820Y232548D01*
X110048Y233320D01*
X109102Y233867D01*
X108046Y234150D01*
D02*
G37*
G36*
X250500Y222499D02*
Y220500D01*
X252499D01*
X252119Y221416D01*
X251416Y222119D01*
X250500Y222499D01*
D02*
G37*
G36*
X249500D02*
X248584Y222119D01*
X247881Y221416D01*
X247501Y220500D01*
X249500D01*
Y222499D01*
D02*
G37*
G36*
X230500D02*
Y220500D01*
X232499D01*
X232119Y221416D01*
X231416Y222119D01*
X230500Y222499D01*
D02*
G37*
G36*
X229500D02*
X228584Y222119D01*
X227881Y221416D01*
X227501Y220500D01*
X229500D01*
Y222499D01*
D02*
G37*
G36*
X130500D02*
Y220500D01*
X132499D01*
X132119Y221416D01*
X131416Y222119D01*
X130500Y222499D01*
D02*
G37*
G36*
X129500D02*
X128584Y222119D01*
X127881Y221416D01*
X127501Y220500D01*
X129500D01*
Y222499D01*
D02*
G37*
G36*
X252499Y219500D02*
X250500D01*
Y217501D01*
X251416Y217881D01*
X252119Y218584D01*
X252499Y219500D01*
D02*
G37*
G36*
X249500D02*
X247501D01*
X247881Y218584D01*
X248584Y217881D01*
X249500Y217501D01*
Y219500D01*
D02*
G37*
G36*
X232499D02*
X230500D01*
Y217501D01*
X231416Y217881D01*
X232119Y218584D01*
X232499Y219500D01*
D02*
G37*
G36*
X229500D02*
X227501D01*
X227881Y218584D01*
X228584Y217881D01*
X229500Y217501D01*
Y219500D01*
D02*
G37*
G36*
X132499D02*
X130500D01*
Y217501D01*
X131416Y217881D01*
X132119Y218584D01*
X132499Y219500D01*
D02*
G37*
G36*
X129500D02*
X127501D01*
X127881Y218584D01*
X128584Y217881D01*
X129500Y217501D01*
Y219500D01*
D02*
G37*
G36*
X373046Y224150D02*
X371954D01*
X370898Y223867D01*
X369952Y223321D01*
X369180Y222548D01*
X368633Y221602D01*
X368350Y220546D01*
Y219454D01*
X368633Y218398D01*
X369180Y217452D01*
X369952Y216680D01*
X370898Y216133D01*
X371954Y215850D01*
X373046D01*
X374102Y216133D01*
X375048Y216680D01*
X375820Y217452D01*
X376367Y218398D01*
X376650Y219454D01*
Y220546D01*
X376367Y221602D01*
X375820Y222548D01*
X375048Y223321D01*
X374102Y223867D01*
X373046Y224150D01*
D02*
G37*
G36*
X108046D02*
X106954D01*
X105898Y223867D01*
X104952Y223321D01*
X104180Y222548D01*
X103633Y221602D01*
X103350Y220546D01*
Y219454D01*
X103633Y218398D01*
X104180Y217452D01*
X104952Y216680D01*
X105898Y216133D01*
X106954Y215850D01*
X108046D01*
X109102Y216133D01*
X110048Y216680D01*
X110820Y217452D01*
X111367Y218398D01*
X111650Y219454D01*
Y220546D01*
X111367Y221602D01*
X110820Y222548D01*
X110048Y223321D01*
X109102Y223867D01*
X108046Y224150D01*
D02*
G37*
G36*
X373046Y214150D02*
X371954D01*
X370898Y213867D01*
X369952Y213320D01*
X369180Y212548D01*
X368633Y211602D01*
X368350Y210546D01*
Y209454D01*
X368633Y208398D01*
X369180Y207452D01*
X369952Y206680D01*
X370898Y206133D01*
X371954Y205850D01*
X373046D01*
X374102Y206133D01*
X375048Y206680D01*
X375820Y207452D01*
X376367Y208398D01*
X376650Y209454D01*
Y210546D01*
X376367Y211602D01*
X375820Y212548D01*
X375048Y213320D01*
X374102Y213867D01*
X373046Y214150D01*
D02*
G37*
G36*
X108046D02*
X106954D01*
X105898Y213867D01*
X104952Y213320D01*
X104180Y212548D01*
X103633Y211602D01*
X103350Y210546D01*
Y209454D01*
X103633Y208398D01*
X104180Y207452D01*
X104952Y206680D01*
X105898Y206133D01*
X106954Y205850D01*
X108046D01*
X109102Y206133D01*
X110048Y206680D01*
X110820Y207452D01*
X111367Y208398D01*
X111650Y209454D01*
Y210546D01*
X111367Y211602D01*
X110820Y212548D01*
X110048Y213320D01*
X109102Y213867D01*
X108046Y214150D01*
D02*
G37*
G36*
X280500Y202499D02*
Y200500D01*
X282499D01*
X282119Y201416D01*
X281416Y202119D01*
X280500Y202499D01*
D02*
G37*
G36*
X279500D02*
X278584Y202119D01*
X277881Y201416D01*
X277501Y200500D01*
X279500D01*
Y202499D01*
D02*
G37*
G36*
X160500D02*
Y200500D01*
X162499D01*
X162119Y201416D01*
X161416Y202119D01*
X160500Y202499D01*
D02*
G37*
G36*
X159500D02*
X158584Y202119D01*
X157881Y201416D01*
X157501Y200500D01*
X159500D01*
Y202499D01*
D02*
G37*
G36*
X120500D02*
Y200500D01*
X122499D01*
X122119Y201416D01*
X121416Y202119D01*
X120500Y202499D01*
D02*
G37*
G36*
X119500D02*
X118584Y202119D01*
X117881Y201416D01*
X117501Y200500D01*
X119500D01*
Y202499D01*
D02*
G37*
G36*
X282499Y199500D02*
X280500D01*
Y197501D01*
X281416Y197881D01*
X282119Y198584D01*
X282499Y199500D01*
D02*
G37*
G36*
X279500D02*
X277501D01*
X277881Y198584D01*
X278584Y197881D01*
X279500Y197501D01*
Y199500D01*
D02*
G37*
G36*
X162499D02*
X160500D01*
Y197501D01*
X161416Y197881D01*
X162119Y198584D01*
X162499Y199500D01*
D02*
G37*
G36*
X159500D02*
X157501D01*
X157881Y198584D01*
X158584Y197881D01*
X159500Y197501D01*
Y199500D01*
D02*
G37*
G36*
X122499D02*
X120500D01*
Y197501D01*
X121416Y197881D01*
X122119Y198584D01*
X122499Y199500D01*
D02*
G37*
G36*
X119500D02*
X117501D01*
X117881Y198584D01*
X118584Y197881D01*
X119500Y197501D01*
Y199500D01*
D02*
G37*
G36*
X373046Y204150D02*
X371954D01*
X370898Y203867D01*
X369952Y203321D01*
X369180Y202548D01*
X368633Y201602D01*
X368350Y200546D01*
Y199454D01*
X368633Y198398D01*
X369180Y197452D01*
X369952Y196679D01*
X370898Y196133D01*
X371954Y195850D01*
X373046D01*
X374102Y196133D01*
X375048Y196679D01*
X375820Y197452D01*
X376367Y198398D01*
X376650Y199454D01*
Y200546D01*
X376367Y201602D01*
X375820Y202548D01*
X375048Y203321D01*
X374102Y203867D01*
X373046Y204150D01*
D02*
G37*
G36*
X108046D02*
X106954D01*
X105898Y203867D01*
X104952Y203321D01*
X104180Y202548D01*
X103633Y201602D01*
X103350Y200546D01*
Y199454D01*
X103633Y198398D01*
X104180Y197452D01*
X104952Y196679D01*
X105898Y196133D01*
X106954Y195850D01*
X108046D01*
X109102Y196133D01*
X110048Y196679D01*
X110820Y197452D01*
X111367Y198398D01*
X111650Y199454D01*
Y200546D01*
X111367Y201602D01*
X110820Y202548D01*
X110048Y203321D01*
X109102Y203867D01*
X108046Y204150D01*
D02*
G37*
G36*
X373046Y194150D02*
X371954D01*
X370898Y193867D01*
X369952Y193321D01*
X369180Y192548D01*
X368633Y191602D01*
X368350Y190546D01*
Y189454D01*
X368633Y188398D01*
X369180Y187452D01*
X369952Y186679D01*
X370898Y186133D01*
X371954Y185850D01*
X373046D01*
X374102Y186133D01*
X375048Y186679D01*
X375820Y187452D01*
X376367Y188398D01*
X376650Y189454D01*
Y190546D01*
X376367Y191602D01*
X375820Y192548D01*
X375048Y193321D01*
X374102Y193867D01*
X373046Y194150D01*
D02*
G37*
G36*
X108046D02*
X106954D01*
X105898Y193867D01*
X104952Y193321D01*
X104180Y192548D01*
X103633Y191602D01*
X103350Y190546D01*
Y189454D01*
X103633Y188398D01*
X104180Y187452D01*
X104952Y186679D01*
X105898Y186133D01*
X106954Y185850D01*
X108046D01*
X109102Y186133D01*
X110048Y186679D01*
X110820Y187452D01*
X111367Y188398D01*
X111650Y189454D01*
Y190546D01*
X111367Y191602D01*
X110820Y192548D01*
X110048Y193321D01*
X109102Y193867D01*
X108046Y194150D01*
D02*
G37*
G36*
X290500Y182499D02*
Y180500D01*
X292499D01*
X292119Y181416D01*
X291416Y182119D01*
X290500Y182499D01*
D02*
G37*
G36*
X289500D02*
X288584Y182119D01*
X287881Y181416D01*
X287501Y180500D01*
X289500D01*
Y182499D01*
D02*
G37*
G36*
X270500D02*
Y180500D01*
X272499D01*
X272119Y181416D01*
X271416Y182119D01*
X270500Y182499D01*
D02*
G37*
G36*
X269500D02*
X268584Y182119D01*
X267881Y181416D01*
X267501Y180500D01*
X269500D01*
Y182499D01*
D02*
G37*
G36*
X170500D02*
Y180500D01*
X172499D01*
X172119Y181416D01*
X171416Y182119D01*
X170500Y182499D01*
D02*
G37*
G36*
X169500D02*
X168584Y182119D01*
X167881Y181416D01*
X167501Y180500D01*
X169500D01*
Y182499D01*
D02*
G37*
G36*
X292499Y179500D02*
X290500D01*
Y177501D01*
X291416Y177881D01*
X292119Y178584D01*
X292499Y179500D01*
D02*
G37*
G36*
X289500D02*
X287501D01*
X287881Y178584D01*
X288584Y177881D01*
X289500Y177501D01*
Y179500D01*
D02*
G37*
G36*
X272499D02*
X270500D01*
Y177501D01*
X271416Y177881D01*
X272119Y178584D01*
X272499Y179500D01*
D02*
G37*
G36*
X269500D02*
X267501D01*
X267881Y178584D01*
X268584Y177881D01*
X269500Y177501D01*
Y179500D01*
D02*
G37*
G36*
X172499D02*
X170500D01*
Y177501D01*
X171416Y177881D01*
X172119Y178584D01*
X172499Y179500D01*
D02*
G37*
G36*
X169500D02*
X167501D01*
X167881Y178584D01*
X168584Y177881D01*
X169500Y177501D01*
Y179500D01*
D02*
G37*
G36*
X373046Y184150D02*
X371954D01*
X370898Y183867D01*
X369952Y183320D01*
X369180Y182548D01*
X368633Y181602D01*
X368350Y180546D01*
Y179454D01*
X368633Y178398D01*
X369180Y177452D01*
X369952Y176680D01*
X370898Y176133D01*
X371954Y175850D01*
X373046D01*
X374102Y176133D01*
X375048Y176680D01*
X375820Y177452D01*
X376367Y178398D01*
X376650Y179454D01*
Y180546D01*
X376367Y181602D01*
X375820Y182548D01*
X375048Y183320D01*
X374102Y183867D01*
X373046Y184150D01*
D02*
G37*
G36*
X108046D02*
X106954D01*
X105898Y183867D01*
X104952Y183320D01*
X104180Y182548D01*
X103633Y181602D01*
X103350Y180546D01*
Y179454D01*
X103633Y178398D01*
X104180Y177452D01*
X104952Y176680D01*
X105898Y176133D01*
X106954Y175850D01*
X108046D01*
X109102Y176133D01*
X110048Y176680D01*
X110820Y177452D01*
X111367Y178398D01*
X111650Y179454D01*
Y180546D01*
X111367Y181602D01*
X110820Y182548D01*
X110048Y183320D01*
X109102Y183867D01*
X108046Y184150D01*
D02*
G37*
G36*
X285497Y174500D02*
X284503D01*
X283584Y174119D01*
X282881Y173416D01*
X282500Y172497D01*
Y171503D01*
X282881Y170584D01*
X283427Y170038D01*
X283394Y169594D01*
X282950Y169313D01*
X282497Y169500D01*
X281503D01*
X280584Y169119D01*
X279881Y168416D01*
X279500Y167497D01*
Y166503D01*
X279881Y165584D01*
X280573Y164892D01*
Y155500D01*
X280573Y155500D01*
X280681Y154954D01*
X280991Y154491D01*
X326223Y109258D01*
X326133Y109102D01*
X325850Y108046D01*
Y106954D01*
X326133Y105898D01*
X326679Y104952D01*
X327452Y104180D01*
X328398Y103633D01*
X329454Y103350D01*
X330546D01*
X331602Y103633D01*
X332548Y104180D01*
X333320Y104952D01*
X333867Y105898D01*
X334150Y106954D01*
Y108046D01*
X333867Y109102D01*
X333320Y110048D01*
X332548Y110820D01*
X331602Y111367D01*
X330546Y111650D01*
X329454D01*
X328398Y111367D01*
X328242Y111277D01*
X327272Y112246D01*
X327276Y112255D01*
X327567Y112659D01*
X328000Y112573D01*
X344409D01*
X346806Y110175D01*
X346679Y110048D01*
X346133Y109102D01*
X345850Y108046D01*
Y106954D01*
X346133Y105898D01*
X346679Y104952D01*
X347452Y104180D01*
X348398Y103633D01*
X349454Y103350D01*
X350546D01*
X351602Y103633D01*
X352548Y104180D01*
X353321Y104952D01*
X353867Y105898D01*
X354150Y106954D01*
Y108046D01*
X353867Y109102D01*
X353321Y110048D01*
X352548Y110820D01*
X351602Y111367D01*
X350546Y111650D01*
X349454D01*
X349387Y111632D01*
X346009Y115009D01*
X345546Y115319D01*
X345000Y115427D01*
X345000Y115427D01*
X328591D01*
X286427Y157591D01*
Y169892D01*
X287119Y170584D01*
X287500Y171503D01*
Y172497D01*
X287119Y173416D01*
X286416Y174119D01*
X285497Y174500D01*
D02*
G37*
G36*
X373046Y174150D02*
X371954D01*
X370898Y173867D01*
X369952Y173320D01*
X369180Y172548D01*
X368633Y171602D01*
X368350Y170546D01*
Y169454D01*
X368633Y168398D01*
X369180Y167452D01*
X369952Y166680D01*
X370898Y166133D01*
X371954Y165850D01*
X373046D01*
X374102Y166133D01*
X375048Y166680D01*
X375820Y167452D01*
X376367Y168398D01*
X376650Y169454D01*
Y170546D01*
X376367Y171602D01*
X375820Y172548D01*
X375048Y173320D01*
X374102Y173867D01*
X373046Y174150D01*
D02*
G37*
G36*
X108046D02*
X106954D01*
X105898Y173867D01*
X104952Y173320D01*
X104180Y172548D01*
X103633Y171602D01*
X103350Y170546D01*
Y169454D01*
X103633Y168398D01*
X104180Y167452D01*
X104952Y166680D01*
X105898Y166133D01*
X106954Y165850D01*
X108046D01*
X109102Y166133D01*
X110048Y166680D01*
X110820Y167452D01*
X111367Y168398D01*
X111650Y169454D01*
Y170546D01*
X111367Y171602D01*
X110820Y172548D01*
X110048Y173320D01*
X109102Y173867D01*
X108046Y174150D01*
D02*
G37*
G36*
X240500Y162499D02*
Y160500D01*
X242499D01*
X242119Y161416D01*
X241416Y162119D01*
X240500Y162499D01*
D02*
G37*
G36*
X239500D02*
X238584Y162119D01*
X237881Y161416D01*
X237501Y160500D01*
X239500D01*
Y162499D01*
D02*
G37*
G36*
X120500D02*
Y160500D01*
X122499D01*
X122119Y161416D01*
X121416Y162119D01*
X120500Y162499D01*
D02*
G37*
G36*
X119500D02*
X118584Y162119D01*
X117881Y161416D01*
X117501Y160500D01*
X119500D01*
Y162499D01*
D02*
G37*
G36*
X242499Y159500D02*
X240500D01*
Y157501D01*
X241416Y157881D01*
X242119Y158584D01*
X242499Y159500D01*
D02*
G37*
G36*
X239500D02*
X237501D01*
X237881Y158584D01*
X238584Y157881D01*
X239500Y157501D01*
Y159500D01*
D02*
G37*
G36*
X122499D02*
X120500D01*
Y157501D01*
X121416Y157881D01*
X122119Y158584D01*
X122499Y159500D01*
D02*
G37*
G36*
X119500D02*
X117501D01*
X117881Y158584D01*
X118584Y157881D01*
X119500Y157501D01*
Y159500D01*
D02*
G37*
G36*
X373046Y164150D02*
X371954D01*
X370898Y163867D01*
X369952Y163321D01*
X369180Y162548D01*
X368633Y161602D01*
X368350Y160546D01*
Y159454D01*
X368633Y158398D01*
X369180Y157452D01*
X369952Y156679D01*
X370898Y156133D01*
X371954Y155850D01*
X373046D01*
X374102Y156133D01*
X375048Y156679D01*
X375820Y157452D01*
X376367Y158398D01*
X376650Y159454D01*
Y160546D01*
X376367Y161602D01*
X375820Y162548D01*
X375048Y163321D01*
X374102Y163867D01*
X373046Y164150D01*
D02*
G37*
G36*
X108046D02*
X106954D01*
X105898Y163867D01*
X104952Y163321D01*
X104180Y162548D01*
X103633Y161602D01*
X103350Y160546D01*
Y159454D01*
X103633Y158398D01*
X104180Y157452D01*
X104952Y156679D01*
X105898Y156133D01*
X106954Y155850D01*
X108046D01*
X109102Y156133D01*
X110048Y156679D01*
X110820Y157452D01*
X111367Y158398D01*
X111650Y159454D01*
Y160546D01*
X111367Y161602D01*
X110820Y162548D01*
X110048Y163321D01*
X109102Y163867D01*
X108046Y164150D01*
D02*
G37*
G36*
X373046Y154150D02*
X371954D01*
X370898Y153867D01*
X369952Y153321D01*
X369180Y152548D01*
X368633Y151602D01*
X368350Y150546D01*
Y149454D01*
X368633Y148398D01*
X369180Y147452D01*
X369952Y146679D01*
X370898Y146133D01*
X371954Y145850D01*
X373046D01*
X374102Y146133D01*
X375048Y146679D01*
X375820Y147452D01*
X376367Y148398D01*
X376650Y149454D01*
Y150546D01*
X376367Y151602D01*
X375820Y152548D01*
X375048Y153321D01*
X374102Y153867D01*
X373046Y154150D01*
D02*
G37*
G36*
X108046D02*
X106954D01*
X105898Y153867D01*
X104952Y153321D01*
X104180Y152548D01*
X103633Y151602D01*
X103350Y150546D01*
Y149454D01*
X103633Y148398D01*
X104180Y147452D01*
X104952Y146679D01*
X105898Y146133D01*
X106954Y145850D01*
X108046D01*
X109102Y146133D01*
X110048Y146679D01*
X110820Y147452D01*
X111367Y148398D01*
X111650Y149454D01*
Y150546D01*
X111367Y151602D01*
X110820Y152548D01*
X110048Y153321D01*
X109102Y153867D01*
X108046Y154150D01*
D02*
G37*
G36*
X331027Y144000D02*
X331000D01*
Y140500D01*
X334500D01*
Y140527D01*
X334227Y141544D01*
X333701Y142456D01*
X332956Y143201D01*
X332044Y143727D01*
X331027Y144000D01*
D02*
G37*
G36*
X330000D02*
X329973D01*
X328956Y143727D01*
X328044Y143201D01*
X327299Y142456D01*
X326773Y141544D01*
X326500Y140527D01*
Y140500D01*
X330000D01*
Y144000D01*
D02*
G37*
G36*
X290500Y142499D02*
Y140500D01*
X292499D01*
X292119Y141416D01*
X291416Y142119D01*
X290500Y142499D01*
D02*
G37*
G36*
X289500D02*
X288584Y142119D01*
X287881Y141416D01*
X287501Y140500D01*
X289500D01*
Y142499D01*
D02*
G37*
G36*
X130500D02*
Y140500D01*
X132499D01*
X132119Y141416D01*
X131416Y142119D01*
X130500Y142499D01*
D02*
G37*
G36*
X129500D02*
X128584Y142119D01*
X127881Y141416D01*
X127501Y140500D01*
X129500D01*
Y142499D01*
D02*
G37*
G36*
X292499Y139500D02*
X290500D01*
Y137501D01*
X291416Y137881D01*
X292119Y138584D01*
X292499Y139500D01*
D02*
G37*
G36*
X289500D02*
X287501D01*
X287881Y138584D01*
X288584Y137881D01*
X289500Y137501D01*
Y139500D01*
D02*
G37*
G36*
X132499D02*
X130500D01*
Y137501D01*
X131416Y137881D01*
X132119Y138584D01*
X132499Y139500D01*
D02*
G37*
G36*
X129500D02*
X127501D01*
X127881Y138584D01*
X128584Y137881D01*
X129500Y137501D01*
Y139500D01*
D02*
G37*
G36*
X334500D02*
X331000D01*
Y136000D01*
X331027D01*
X332044Y136273D01*
X332956Y136799D01*
X333701Y137544D01*
X334227Y138456D01*
X334500Y139473D01*
Y139500D01*
D02*
G37*
G36*
X330000D02*
X326500D01*
Y139473D01*
X326773Y138456D01*
X327299Y137544D01*
X328044Y136799D01*
X328956Y136273D01*
X329973Y136000D01*
X330000D01*
Y139500D01*
D02*
G37*
G36*
X373046Y144150D02*
X371954D01*
X370898Y143867D01*
X369952Y143321D01*
X369180Y142548D01*
X368633Y141602D01*
X368350Y140546D01*
Y139454D01*
X368633Y138398D01*
X369180Y137452D01*
X369952Y136679D01*
X370898Y136133D01*
X371954Y135850D01*
X373046D01*
X374102Y136133D01*
X375048Y136679D01*
X375820Y137452D01*
X376367Y138398D01*
X376650Y139454D01*
Y140546D01*
X376367Y141602D01*
X375820Y142548D01*
X375048Y143321D01*
X374102Y143867D01*
X373046Y144150D01*
D02*
G37*
G36*
X108046D02*
X106954D01*
X105898Y143867D01*
X104952Y143321D01*
X104180Y142548D01*
X103633Y141602D01*
X103350Y140546D01*
Y139454D01*
X103633Y138398D01*
X104180Y137452D01*
X104952Y136679D01*
X105898Y136133D01*
X106954Y135850D01*
X108046D01*
X109102Y136133D01*
X110048Y136679D01*
X110820Y137452D01*
X111367Y138398D01*
X111650Y139454D01*
Y140546D01*
X111367Y141602D01*
X110820Y142548D01*
X110048Y143321D01*
X109102Y143867D01*
X108046Y144150D01*
D02*
G37*
G36*
X373046Y134150D02*
X371954D01*
X370898Y133867D01*
X369952Y133320D01*
X369180Y132548D01*
X368633Y131602D01*
X368350Y130546D01*
Y129454D01*
X368633Y128398D01*
X369180Y127452D01*
X369952Y126680D01*
X370898Y126133D01*
X371954Y125850D01*
X373046D01*
X374102Y126133D01*
X375048Y126680D01*
X375820Y127452D01*
X376367Y128398D01*
X376650Y129454D01*
Y130546D01*
X376367Y131602D01*
X375820Y132548D01*
X375048Y133320D01*
X374102Y133867D01*
X373046Y134150D01*
D02*
G37*
G36*
X108046D02*
X106954D01*
X105898Y133867D01*
X104952Y133320D01*
X104180Y132548D01*
X103633Y131602D01*
X103350Y130546D01*
Y129454D01*
X103633Y128398D01*
X104180Y127452D01*
X104952Y126680D01*
X105898Y126133D01*
X106954Y125850D01*
X108046D01*
X109102Y126133D01*
X110048Y126680D01*
X110820Y127452D01*
X111367Y128398D01*
X111650Y129454D01*
Y130546D01*
X111367Y131602D01*
X110820Y132548D01*
X110048Y133320D01*
X109102Y133867D01*
X108046Y134150D01*
D02*
G37*
G36*
X340500Y122499D02*
Y120500D01*
X342499D01*
X342119Y121416D01*
X341416Y122119D01*
X340500Y122499D01*
D02*
G37*
G36*
X339500D02*
X338584Y122119D01*
X337881Y121416D01*
X337501Y120500D01*
X339500D01*
Y122499D01*
D02*
G37*
G36*
X240500D02*
Y120500D01*
X242499D01*
X242119Y121416D01*
X241416Y122119D01*
X240500Y122499D01*
D02*
G37*
G36*
X239500D02*
X238584Y122119D01*
X237881Y121416D01*
X237501Y120500D01*
X239500D01*
Y122499D01*
D02*
G37*
G36*
X342499Y119500D02*
X340500D01*
Y117501D01*
X341416Y117881D01*
X342119Y118584D01*
X342499Y119500D01*
D02*
G37*
G36*
X339500D02*
X337501D01*
X337881Y118584D01*
X338584Y117881D01*
X339500Y117501D01*
Y119500D01*
D02*
G37*
G36*
X242499D02*
X240500D01*
Y117501D01*
X241416Y117881D01*
X242119Y118584D01*
X242499Y119500D01*
D02*
G37*
G36*
X239500D02*
X237501D01*
X237881Y118584D01*
X238584Y117881D01*
X239500Y117501D01*
Y119500D01*
D02*
G37*
G36*
X373046Y124150D02*
X371954D01*
X370898Y123867D01*
X369952Y123320D01*
X369180Y122548D01*
X368633Y121602D01*
X368350Y120546D01*
Y119454D01*
X368633Y118398D01*
X369180Y117452D01*
X369952Y116680D01*
X370898Y116133D01*
X371954Y115850D01*
X373046D01*
X374102Y116133D01*
X375048Y116680D01*
X375820Y117452D01*
X376367Y118398D01*
X376650Y119454D01*
Y120546D01*
X376367Y121602D01*
X375820Y122548D01*
X375048Y123320D01*
X374102Y123867D01*
X373046Y124150D01*
D02*
G37*
G36*
X108046D02*
X106954D01*
X105898Y123867D01*
X104952Y123320D01*
X104180Y122548D01*
X103633Y121602D01*
X103350Y120546D01*
Y119454D01*
X103633Y118398D01*
X104180Y117452D01*
X104952Y116680D01*
X105898Y116133D01*
X106954Y115850D01*
X108046D01*
X109102Y116133D01*
X110048Y116680D01*
X110820Y117452D01*
X111367Y118398D01*
X111650Y119454D01*
Y120546D01*
X111367Y121602D01*
X110820Y122548D01*
X110048Y123320D01*
X109102Y123867D01*
X108046Y124150D01*
D02*
G37*
G36*
X360546Y111650D02*
X359454D01*
X358398Y111367D01*
X357452Y110820D01*
X356680Y110048D01*
X356133Y109102D01*
X355850Y108046D01*
Y106954D01*
X356133Y105898D01*
X356680Y104952D01*
X357452Y104180D01*
X358398Y103633D01*
X359454Y103350D01*
X360546D01*
X361602Y103633D01*
X362548Y104180D01*
X363320Y104952D01*
X363867Y105898D01*
X364150Y106954D01*
Y108046D01*
X363867Y109102D01*
X363320Y110048D01*
X362548Y110820D01*
X361602Y111367D01*
X360546Y111650D01*
D02*
G37*
G36*
X340546D02*
X339454D01*
X338398Y111367D01*
X337452Y110820D01*
X336680Y110048D01*
X336133Y109102D01*
X335850Y108046D01*
Y106954D01*
X336133Y105898D01*
X336680Y104952D01*
X337452Y104180D01*
X338398Y103633D01*
X339454Y103350D01*
X340546D01*
X341602Y103633D01*
X342548Y104180D01*
X343320Y104952D01*
X343867Y105898D01*
X344150Y106954D01*
Y108046D01*
X343867Y109102D01*
X343320Y110048D01*
X342548Y110820D01*
X341602Y111367D01*
X340546Y111650D01*
D02*
G37*
G36*
X320546D02*
X319454D01*
X318398Y111367D01*
X317452Y110820D01*
X316680Y110048D01*
X316133Y109102D01*
X315850Y108046D01*
Y106954D01*
X316133Y105898D01*
X316680Y104952D01*
X317452Y104180D01*
X318398Y103633D01*
X319454Y103350D01*
X320546D01*
X321602Y103633D01*
X322548Y104180D01*
X323321Y104952D01*
X323867Y105898D01*
X324150Y106954D01*
Y108046D01*
X323867Y109102D01*
X323321Y110048D01*
X322548Y110820D01*
X321602Y111367D01*
X320546Y111650D01*
D02*
G37*
G36*
X310546D02*
X309454D01*
X308398Y111367D01*
X307452Y110820D01*
X306680Y110048D01*
X306133Y109102D01*
X305850Y108046D01*
Y106954D01*
X306133Y105898D01*
X306680Y104952D01*
X307452Y104180D01*
X308398Y103633D01*
X309454Y103350D01*
X310546D01*
X311602Y103633D01*
X312548Y104180D01*
X313320Y104952D01*
X313867Y105898D01*
X314150Y106954D01*
Y108046D01*
X313867Y109102D01*
X313320Y110048D01*
X312548Y110820D01*
X311602Y111367D01*
X310546Y111650D01*
D02*
G37*
G36*
X300546D02*
X299454D01*
X298398Y111367D01*
X297452Y110820D01*
X296679Y110048D01*
X296133Y109102D01*
X295850Y108046D01*
Y106954D01*
X296133Y105898D01*
X296679Y104952D01*
X297452Y104180D01*
X298398Y103633D01*
X299454Y103350D01*
X300546D01*
X301602Y103633D01*
X302548Y104180D01*
X303321Y104952D01*
X303867Y105898D01*
X304150Y106954D01*
Y108046D01*
X303867Y109102D01*
X303321Y110048D01*
X302548Y110820D01*
X301602Y111367D01*
X300546Y111650D01*
D02*
G37*
G36*
X290546D02*
X289454D01*
X288398Y111367D01*
X287452Y110820D01*
X286680Y110048D01*
X286133Y109102D01*
X285850Y108046D01*
Y106954D01*
X286133Y105898D01*
X286680Y104952D01*
X287452Y104180D01*
X288398Y103633D01*
X289454Y103350D01*
X290546D01*
X291602Y103633D01*
X292548Y104180D01*
X293320Y104952D01*
X293867Y105898D01*
X294150Y106954D01*
Y108046D01*
X293867Y109102D01*
X293320Y110048D01*
X292548Y110820D01*
X291602Y111367D01*
X290546Y111650D01*
D02*
G37*
G36*
X280546D02*
X279454D01*
X278398Y111367D01*
X277452Y110820D01*
X276679Y110048D01*
X276133Y109102D01*
X275850Y108046D01*
Y106954D01*
X276133Y105898D01*
X276679Y104952D01*
X277452Y104180D01*
X278398Y103633D01*
X279454Y103350D01*
X280546D01*
X281602Y103633D01*
X282548Y104180D01*
X283320Y104952D01*
X283867Y105898D01*
X284150Y106954D01*
Y108046D01*
X283867Y109102D01*
X283320Y110048D01*
X282548Y110820D01*
X281602Y111367D01*
X280546Y111650D01*
D02*
G37*
G36*
X270546D02*
X269454D01*
X268398Y111367D01*
X267452Y110820D01*
X266680Y110048D01*
X266133Y109102D01*
X265850Y108046D01*
Y106954D01*
X266133Y105898D01*
X266680Y104952D01*
X267452Y104180D01*
X268398Y103633D01*
X269454Y103350D01*
X270546D01*
X271602Y103633D01*
X272548Y104180D01*
X273321Y104952D01*
X273867Y105898D01*
X274150Y106954D01*
Y108046D01*
X273867Y109102D01*
X273321Y110048D01*
X272548Y110820D01*
X271602Y111367D01*
X270546Y111650D01*
D02*
G37*
G36*
X260546D02*
X259454D01*
X258398Y111367D01*
X257452Y110820D01*
X256680Y110048D01*
X256133Y109102D01*
X255850Y108046D01*
Y106954D01*
X256133Y105898D01*
X256680Y104952D01*
X257452Y104180D01*
X258398Y103633D01*
X259454Y103350D01*
X260546D01*
X261602Y103633D01*
X262548Y104180D01*
X263320Y104952D01*
X263867Y105898D01*
X264150Y106954D01*
Y108046D01*
X263867Y109102D01*
X263320Y110048D01*
X262548Y110820D01*
X261602Y111367D01*
X260546Y111650D01*
D02*
G37*
G36*
X250546D02*
X249454D01*
X248398Y111367D01*
X247452Y110820D01*
X246679Y110048D01*
X246133Y109102D01*
X245850Y108046D01*
Y106954D01*
X246133Y105898D01*
X246679Y104952D01*
X247452Y104180D01*
X248398Y103633D01*
X249454Y103350D01*
X250546D01*
X251602Y103633D01*
X252548Y104180D01*
X253321Y104952D01*
X253867Y105898D01*
X254150Y106954D01*
Y108046D01*
X253867Y109102D01*
X253321Y110048D01*
X252548Y110820D01*
X251602Y111367D01*
X250546Y111650D01*
D02*
G37*
G36*
X240546D02*
X239454D01*
X238398Y111367D01*
X237452Y110820D01*
X236680Y110048D01*
X236133Y109102D01*
X235850Y108046D01*
Y106954D01*
X236133Y105898D01*
X236680Y104952D01*
X237452Y104180D01*
X238398Y103633D01*
X239454Y103350D01*
X240546D01*
X241602Y103633D01*
X242548Y104180D01*
X243320Y104952D01*
X243867Y105898D01*
X244150Y106954D01*
Y108046D01*
X243867Y109102D01*
X243320Y110048D01*
X242548Y110820D01*
X241602Y111367D01*
X240546Y111650D01*
D02*
G37*
G36*
X230546D02*
X229454D01*
X228398Y111367D01*
X227452Y110820D01*
X226679Y110048D01*
X226133Y109102D01*
X225850Y108046D01*
Y106954D01*
X226133Y105898D01*
X226679Y104952D01*
X227452Y104180D01*
X228398Y103633D01*
X229454Y103350D01*
X230546D01*
X231602Y103633D01*
X232548Y104180D01*
X233320Y104952D01*
X233867Y105898D01*
X234150Y106954D01*
Y108046D01*
X233867Y109102D01*
X233320Y110048D01*
X232548Y110820D01*
X231602Y111367D01*
X230546Y111650D01*
D02*
G37*
G36*
X220546D02*
X219454D01*
X218398Y111367D01*
X217452Y110820D01*
X216680Y110048D01*
X216133Y109102D01*
X215850Y108046D01*
Y106954D01*
X216133Y105898D01*
X216680Y104952D01*
X217452Y104180D01*
X218398Y103633D01*
X219454Y103350D01*
X220546D01*
X221602Y103633D01*
X222548Y104180D01*
X223321Y104952D01*
X223867Y105898D01*
X224150Y106954D01*
Y108046D01*
X223867Y109102D01*
X223321Y110048D01*
X222548Y110820D01*
X221602Y111367D01*
X220546Y111650D01*
D02*
G37*
G36*
X210546D02*
X209454D01*
X208398Y111367D01*
X207452Y110820D01*
X206680Y110048D01*
X206133Y109102D01*
X205850Y108046D01*
Y106954D01*
X206133Y105898D01*
X206680Y104952D01*
X207452Y104180D01*
X208398Y103633D01*
X209454Y103350D01*
X210546D01*
X211602Y103633D01*
X212548Y104180D01*
X213320Y104952D01*
X213867Y105898D01*
X214150Y106954D01*
Y108046D01*
X213867Y109102D01*
X213320Y110048D01*
X212548Y110820D01*
X211602Y111367D01*
X210546Y111650D01*
D02*
G37*
G36*
X200546D02*
X199454D01*
X198398Y111367D01*
X197452Y110820D01*
X196679Y110048D01*
X196133Y109102D01*
X195850Y108046D01*
Y106954D01*
X196133Y105898D01*
X196679Y104952D01*
X197452Y104180D01*
X198398Y103633D01*
X199454Y103350D01*
X200546D01*
X201602Y103633D01*
X202548Y104180D01*
X203321Y104952D01*
X203867Y105898D01*
X204150Y106954D01*
Y108046D01*
X203867Y109102D01*
X203321Y110048D01*
X202548Y110820D01*
X201602Y111367D01*
X200546Y111650D01*
D02*
G37*
G36*
X190546D02*
X189454D01*
X188398Y111367D01*
X187452Y110820D01*
X186679Y110048D01*
X186133Y109102D01*
X185850Y108046D01*
Y106954D01*
X186133Y105898D01*
X186679Y104952D01*
X187452Y104180D01*
X188398Y103633D01*
X189454Y103350D01*
X190546D01*
X191602Y103633D01*
X192548Y104180D01*
X193321Y104952D01*
X193867Y105898D01*
X194150Y106954D01*
Y108046D01*
X193867Y109102D01*
X193321Y110048D01*
X192548Y110820D01*
X191602Y111367D01*
X190546Y111650D01*
D02*
G37*
G36*
X180546D02*
X179454D01*
X178398Y111367D01*
X177452Y110820D01*
X176680Y110048D01*
X176133Y109102D01*
X175850Y108046D01*
Y106954D01*
X176133Y105898D01*
X176680Y104952D01*
X177452Y104180D01*
X178398Y103633D01*
X179454Y103350D01*
X180546D01*
X181602Y103633D01*
X182548Y104180D01*
X183320Y104952D01*
X183867Y105898D01*
X184150Y106954D01*
Y108046D01*
X183867Y109102D01*
X183320Y110048D01*
X182548Y110820D01*
X181602Y111367D01*
X180546Y111650D01*
D02*
G37*
G36*
X170546D02*
X169454D01*
X168398Y111367D01*
X167452Y110820D01*
X166680Y110048D01*
X166133Y109102D01*
X165850Y108046D01*
Y106954D01*
X166133Y105898D01*
X166680Y104952D01*
X167452Y104180D01*
X168398Y103633D01*
X169454Y103350D01*
X170546D01*
X171602Y103633D01*
X172548Y104180D01*
X173320Y104952D01*
X173867Y105898D01*
X174150Y106954D01*
Y108046D01*
X173867Y109102D01*
X173320Y110048D01*
X172548Y110820D01*
X171602Y111367D01*
X170546Y111650D01*
D02*
G37*
G36*
X160546D02*
X159454D01*
X158398Y111367D01*
X157452Y110820D01*
X156679Y110048D01*
X156133Y109102D01*
X155850Y108046D01*
Y106954D01*
X156133Y105898D01*
X156679Y104952D01*
X157452Y104180D01*
X158398Y103633D01*
X159454Y103350D01*
X160546D01*
X161602Y103633D01*
X162548Y104180D01*
X163321Y104952D01*
X163867Y105898D01*
X164150Y106954D01*
Y108046D01*
X163867Y109102D01*
X163321Y110048D01*
X162548Y110820D01*
X161602Y111367D01*
X160546Y111650D01*
D02*
G37*
G36*
X150546D02*
X149454D01*
X148398Y111367D01*
X147452Y110820D01*
X146679Y110048D01*
X146133Y109102D01*
X145850Y108046D01*
Y106954D01*
X146133Y105898D01*
X146679Y104952D01*
X147452Y104180D01*
X148398Y103633D01*
X149454Y103350D01*
X150546D01*
X151602Y103633D01*
X152548Y104180D01*
X153321Y104952D01*
X153867Y105898D01*
X154150Y106954D01*
Y108046D01*
X153867Y109102D01*
X153321Y110048D01*
X152548Y110820D01*
X151602Y111367D01*
X150546Y111650D01*
D02*
G37*
G36*
X140546D02*
X139454D01*
X138398Y111367D01*
X137452Y110820D01*
X136679Y110048D01*
X136133Y109102D01*
X135850Y108046D01*
Y106954D01*
X136133Y105898D01*
X136679Y104952D01*
X137452Y104180D01*
X138398Y103633D01*
X139454Y103350D01*
X140546D01*
X141602Y103633D01*
X142548Y104180D01*
X143321Y104952D01*
X143867Y105898D01*
X144150Y106954D01*
Y108046D01*
X143867Y109102D01*
X143321Y110048D01*
X142548Y110820D01*
X141602Y111367D01*
X140546Y111650D01*
D02*
G37*
G36*
X130546D02*
X129454D01*
X128398Y111367D01*
X127452Y110820D01*
X126680Y110048D01*
X126133Y109102D01*
X125850Y108046D01*
Y106954D01*
X126133Y105898D01*
X126680Y104952D01*
X127452Y104180D01*
X128398Y103633D01*
X129454Y103350D01*
X130546D01*
X131602Y103633D01*
X132548Y104180D01*
X133320Y104952D01*
X133867Y105898D01*
X134150Y106954D01*
Y108046D01*
X133867Y109102D01*
X133320Y110048D01*
X132548Y110820D01*
X131602Y111367D01*
X130546Y111650D01*
D02*
G37*
G36*
X120546D02*
X119454D01*
X118398Y111367D01*
X117452Y110820D01*
X116680Y110048D01*
X116133Y109102D01*
X115850Y108046D01*
Y106954D01*
X116133Y105898D01*
X116680Y104952D01*
X117452Y104180D01*
X118398Y103633D01*
X119454Y103350D01*
X120546D01*
X121602Y103633D01*
X122548Y104180D01*
X123320Y104952D01*
X123867Y105898D01*
X124150Y106954D01*
Y108046D01*
X123867Y109102D01*
X123320Y110048D01*
X122548Y110820D01*
X121602Y111367D01*
X120546Y111650D01*
D02*
G37*
%LPD*%
D13*
X241019Y212000D02*
X260500D01*
X217620Y212880D02*
X220117D01*
X240522Y212497D02*
X241019Y212000D01*
X220117Y212880D02*
X220500Y212497D01*
X211500Y219000D02*
X217620Y212880D01*
X220500Y212497D02*
X240522D01*
X166000Y303000D02*
X208500Y260500D01*
X166000Y303000D02*
Y335500D01*
X140000Y331607D02*
Y372500D01*
Y331607D02*
X154607Y317000D01*
X180500Y293500D02*
X211500Y262500D01*
X180500Y293500D02*
Y311000D01*
X271693Y219193D02*
Y258693D01*
X233000Y265000D02*
X237500Y269500D01*
X259500D01*
X225000Y265000D02*
Y273000D01*
X268000Y219500D02*
Y243000D01*
X260500Y212000D02*
X268000Y219500D01*
X245000Y209000D02*
X261500D01*
X271693Y219193D01*
X211500Y219000D02*
Y223500D01*
Y262500D01*
X261500Y209000D02*
X278500Y192000D01*
X226000Y209000D02*
X245000D01*
X225000Y273000D02*
X246500D01*
X261000D02*
X267000Y267000D01*
X271000Y271000D01*
X267000Y267000D02*
X271693Y262307D01*
X208500Y217500D02*
X217000Y209000D01*
X226000D01*
X208500Y217500D02*
Y260500D01*
X271693Y258693D02*
Y262307D01*
X246500Y273000D02*
X261000D01*
X259500Y269500D02*
X268000Y261000D01*
Y243008D02*
Y261000D01*
D37*
X285000Y157000D02*
Y172000D01*
Y157000D02*
X328000Y114000D01*
X345000D01*
X278500Y192000D02*
X287500D01*
X303000Y176500D01*
X350000Y107500D02*
Y108988D01*
X345000Y114000D02*
X348474Y110526D01*
Y110514D02*
Y110526D01*
Y110514D02*
X350000Y108988D01*
X282000Y155500D02*
Y167000D01*
Y155500D02*
X330000Y107500D01*
D38*
X233000Y265000D02*
D03*
X225000D02*
D03*
X330500Y140000D02*
D03*
X300000Y292500D02*
D03*
D39*
X150000Y372500D02*
D03*
X160000D02*
D03*
X170000D02*
D03*
X180000D02*
D03*
X190000D02*
D03*
X200000D02*
D03*
X210000D02*
D03*
X220000D02*
D03*
X230000D02*
D03*
X240000D02*
D03*
X250000D02*
D03*
X260000D02*
D03*
X270000D02*
D03*
X280000D02*
D03*
X290000D02*
D03*
X300000D02*
D03*
X310000D02*
D03*
X320000D02*
D03*
X330000D02*
D03*
X340000D02*
D03*
X350000D02*
D03*
X360000D02*
D03*
X140000D02*
D03*
X130000D02*
D03*
X120000D02*
D03*
X372500Y330000D02*
D03*
Y320000D02*
D03*
Y310000D02*
D03*
Y300000D02*
D03*
Y290000D02*
D03*
Y280000D02*
D03*
Y270000D02*
D03*
Y260000D02*
D03*
Y250000D02*
D03*
Y240000D02*
D03*
Y230000D02*
D03*
Y220000D02*
D03*
Y210000D02*
D03*
Y200000D02*
D03*
Y190000D02*
D03*
Y180000D02*
D03*
Y170000D02*
D03*
Y160000D02*
D03*
Y150000D02*
D03*
Y140000D02*
D03*
Y130000D02*
D03*
Y120000D02*
D03*
Y340000D02*
D03*
Y350000D02*
D03*
Y360000D02*
D03*
X330000Y107500D02*
D03*
X320000D02*
D03*
X310000D02*
D03*
X300000D02*
D03*
X290000D02*
D03*
X280000D02*
D03*
X270000D02*
D03*
X260000D02*
D03*
X250000D02*
D03*
X240000D02*
D03*
X230000D02*
D03*
X220000D02*
D03*
X210000D02*
D03*
X200000D02*
D03*
X190000D02*
D03*
X180000D02*
D03*
X170000D02*
D03*
X160000D02*
D03*
X150000D02*
D03*
X140000D02*
D03*
X130000D02*
D03*
X120000D02*
D03*
X340000D02*
D03*
X350000D02*
D03*
X360000D02*
D03*
X107500Y150000D02*
D03*
Y160000D02*
D03*
Y170000D02*
D03*
Y180000D02*
D03*
Y190000D02*
D03*
Y200000D02*
D03*
Y210000D02*
D03*
Y220000D02*
D03*
Y230000D02*
D03*
Y240000D02*
D03*
Y250000D02*
D03*
Y260000D02*
D03*
Y270000D02*
D03*
Y280000D02*
D03*
Y290000D02*
D03*
Y300000D02*
D03*
Y310000D02*
D03*
Y320000D02*
D03*
Y330000D02*
D03*
Y340000D02*
D03*
Y350000D02*
D03*
Y360000D02*
D03*
Y140000D02*
D03*
Y130000D02*
D03*
Y120000D02*
D03*
D40*
X220500Y212497D02*
D03*
X166000Y335500D02*
D03*
X350000Y340000D02*
D03*
X340000Y120000D02*
D03*
X330000Y340000D02*
D03*
X320000Y320000D02*
D03*
X310000Y300000D02*
D03*
X290000D02*
D03*
X280000Y200000D02*
D03*
X290000Y180000D02*
D03*
Y140000D02*
D03*
X260000Y240000D02*
D03*
X270000Y180000D02*
D03*
X240000Y360000D02*
D03*
Y320000D02*
D03*
X250000Y260000D02*
D03*
X240000Y240000D02*
D03*
X250000Y220000D02*
D03*
X240000Y160000D02*
D03*
Y120000D02*
D03*
X230000Y340000D02*
D03*
Y300000D02*
D03*
Y260000D02*
D03*
X220000Y240000D02*
D03*
X230000Y220000D02*
D03*
X200000Y280000D02*
D03*
X160000Y360000D02*
D03*
Y280000D02*
D03*
Y200000D02*
D03*
X170000Y180000D02*
D03*
X120000Y360000D02*
D03*
X130000Y340000D02*
D03*
X120000Y320000D02*
D03*
Y280000D02*
D03*
X130000Y260000D02*
D03*
X120000Y240000D02*
D03*
X130000Y220000D02*
D03*
X120000Y200000D02*
D03*
Y160000D02*
D03*
X130000Y140000D02*
D03*
X180500Y311000D02*
D03*
X154607Y317000D02*
D03*
X278500Y192000D02*
D03*
X285000Y172000D02*
D03*
X303000Y176500D02*
D03*
X282000Y167000D02*
D03*
X271000Y271000D02*
D03*
X271693Y258693D02*
D03*
X208500Y217500D02*
D03*
X226000Y209000D02*
D03*
X245000D02*
D03*
X225000Y273000D02*
D03*
X208500Y260500D02*
D03*
X272000Y237000D02*
D03*
X259500Y269500D02*
D03*
X246500Y273000D02*
D03*
X211500Y223500D02*
D03*
X268000Y243000D02*
D03*
M02*
