G04*
G04 #@! TF.GenerationSoftware,Altium Limited,Altium Designer,22.1.2 (22)*
G04*
G04 Layer_Color=32768*
%FSLAX25Y25*%
%MOIN*%
G70*
G04*
G04 #@! TF.SameCoordinates,7EB5FEC4-0347-4BB5-A0A8-A435BEEEC189*
G04*
G04*
G04 #@! TF.FilePolarity,Positive*
G04*
G01*
G75*
%ADD12C,0.00787*%
%ADD37C,0.00800*%
%ADD44C,0.00394*%
%ADD45C,0.00197*%
D12*
X147658Y335134D02*
X162134Y320657D01*
X181342Y339866D01*
X166866Y354343D02*
X181342Y339866D01*
X147658Y335134D02*
X166866Y354343D01*
X287260Y276634D02*
X294740D01*
Y293366D01*
X287260D02*
X294740D01*
X287260Y276634D02*
Y293366D01*
D37*
X152511Y346511D02*
X155295Y349295D01*
X152511D02*
X155295Y346511D01*
X139983Y336767D02*
X142767Y333983D01*
D44*
X238032Y240000D02*
X241968D01*
X240000Y238032D02*
Y241968D01*
X179108Y312392D02*
X181892Y309608D01*
X179108D02*
X181892Y312392D01*
D45*
X195118Y195118D02*
Y284882D01*
X284882Y195118D02*
Y284882D01*
X195118D02*
X284882D01*
X195118Y195118D02*
X284882D01*
X156419Y313645D02*
X177855Y335081D01*
X183145Y286919D02*
X204581Y308355D01*
X177855Y335081D02*
X204581Y308355D01*
X156419Y313645D02*
X183145Y286919D01*
X115000Y366417D02*
X366378D01*
X115000D02*
Y378583D01*
X366378D01*
Y366417D02*
Y378583D01*
X366417Y113622D02*
Y365000D01*
X378583D01*
Y113622D02*
Y365000D01*
X366417Y113622D02*
X378583D01*
X113622Y113583D02*
X365000D01*
Y101417D02*
Y113583D01*
X113622Y101417D02*
X365000D01*
X113622D02*
Y113583D01*
X113583Y115000D02*
Y366378D01*
X101417Y115000D02*
X113583D01*
X101417D02*
Y366378D01*
X113583D01*
M02*
