M48
;Layer_Color=9474304
;FILE_FORMAT=2:4
INCH,TZ
;TYPE=PLATED
T1F00S00C0.0150
T2F00S00C0.0300
T3F00S00C0.0433
%
T01
X13000Y14000
X24000Y12000
X29000Y14000
X34000Y12000
X30300Y17650
X29000Y18000
X28500Y17200
X28200Y16700
X27000Y18000
X27850Y19200
X28000Y20000
X24500Y20900
X25000Y22000
X23000
X22600Y20900
X22050Y21250
X20850Y21750
X21150Y22350
X22000Y24000
X24000
X26000
X26800Y24300
X27200Y23700
X27169Y25869
X27100Y27100
X25950Y26950
X24650Y27300
X25000Y26000
X23000
X22500Y27300
X20850Y26050
X20000Y28000
X16000
X18050Y31100
X23000Y30000
X29000
X31000
X24000Y16000
X17000Y18000
X16000Y20000
X12000
X13000Y22000
X12000Y24000
X13000Y26000
X12000Y28000
Y16000
Y32000
X13000Y34000
X12000Y36000
X15461Y31700
X16600Y33550
X16000Y36000
X24000
X23000Y34000
X24000Y32000
X32000
X33000Y34000
X35000
T02
X33050Y14000
X30000Y29250
T03
X12000Y10750
X13000
X14000
X15000
X10750Y12000
Y13000
Y14000
Y15000
X16000Y10750
X17000
X18000
X19000
X20000
X21000
X22000
X23000
X24000
X25000
X26000
X27000
X28000
X29000
X30000
X31000
X32000
X33000
X34000
X35000
X36000
X37250Y12000
Y13000
Y14000
Y15000
Y16000
Y17000
Y18000
Y19000
Y20000
Y21000
Y22000
Y23000
Y24000
Y25000
Y26000
Y27000
Y28000
Y29000
Y30000
Y31000
X10750
Y30000
Y29000
Y28000
Y27000
Y26000
Y25000
Y24000
Y23000
Y22000
Y21000
Y20000
Y19000
Y18000
Y17000
Y16000
Y32000
Y33000
Y34000
Y35000
Y36000
X12000Y37250
X13000
X14000
X15000
X16000
X17000
X18000
X19000
X20000
X21000
X22000
X23000
X24000
X25000
X26000
X27000
X28000
X29000
X30000
X31000
X32000
X33000
X34000
X35000
X36000
X37250Y36000
Y35000
Y34000
Y33000
Y32000
M30
