G04*
G04 #@! TF.GenerationSoftware,Altium Limited,Altium Designer,22.1.2 (22)*
G04*
G04 Layer_Color=16711935*
%FSLAX25Y25*%
%MOIN*%
G70*
G04*
G04 #@! TF.SameCoordinates,7EB5FEC4-0347-4BB5-A0A8-A435BEEEC189*
G04*
G04*
G04 #@! TF.FilePolarity,Positive*
G04*
G01*
G75*
%ADD12C,0.00787*%
G36*
X165553Y341873D02*
X165599D01*
X165630Y341868D01*
X165661Y341863D01*
X165699Y341855D01*
X165774Y341832D01*
X165862Y341796D01*
X165903Y341775D01*
X165944Y341744D01*
X165985Y341713D01*
X166026Y341677D01*
X166031Y341672D01*
X166044Y341659D01*
X166062Y341636D01*
X166088Y341605D01*
X166114Y341569D01*
X166140Y341523D01*
X166168Y341474D01*
X166191Y341420D01*
X166194Y341412D01*
X166201Y341394D01*
X166212Y341363D01*
X166225Y341319D01*
X166235Y341268D01*
X166248Y341204D01*
X166255Y341134D01*
X166263Y341054D01*
Y341044D01*
X166266Y341016D01*
Y340990D01*
Y340964D01*
Y340933D01*
Y340892D01*
Y340851D01*
X166263Y340802D01*
Y340751D01*
X166261Y340691D01*
X166255Y340630D01*
X166253Y340560D01*
X166245Y340486D01*
X166240Y340408D01*
Y340403D01*
Y340393D01*
X166237Y340375D01*
X166235Y340352D01*
Y340321D01*
X166232Y340287D01*
X166225Y340213D01*
X166219Y340130D01*
X166217Y340051D01*
X166214Y339981D01*
X166212Y339953D01*
Y339927D01*
Y339922D01*
Y339907D01*
Y339886D01*
X166214Y339858D01*
X166219Y339827D01*
X166222Y339793D01*
X166235Y339719D01*
X167113Y340596D01*
X167324Y340385D01*
X166142Y339204D01*
X166140Y339206D01*
X166129Y339217D01*
X166114Y339232D01*
X166096Y339255D01*
X166075Y339281D01*
X166055Y339312D01*
X166034Y339343D01*
X166016Y339381D01*
X166013Y339384D01*
Y339389D01*
X166003Y339410D01*
X165990Y339443D01*
X165975Y339490D01*
X165959Y339546D01*
X165944Y339613D01*
X165931Y339683D01*
X165923Y339762D01*
X165921Y339765D01*
X165923Y339773D01*
X165921Y339801D01*
Y339847D01*
Y339914D01*
Y339991D01*
X165923Y340087D01*
X165931Y340197D01*
X165941Y340316D01*
Y340321D01*
X165944Y340339D01*
X165946Y340367D01*
X165949Y340401D01*
X165952Y340444D01*
X165957Y340496D01*
X165959Y340550D01*
X165964Y340612D01*
X165967Y340738D01*
X165970Y340864D01*
Y340926D01*
X165967Y340985D01*
X165964Y341039D01*
X165957Y341088D01*
X165954Y341090D01*
X165957Y341098D01*
X165954Y341111D01*
X165949Y341126D01*
X165939Y341173D01*
X165926Y341227D01*
X165903Y341286D01*
X165877Y341348D01*
X165838Y341407D01*
X165797Y341459D01*
X165795Y341461D01*
X165792Y341464D01*
X165774Y341477D01*
X165746Y341500D01*
X165710Y341520D01*
X165663Y341546D01*
X165609Y341564D01*
X165550Y341577D01*
X165483Y341582D01*
X165473D01*
X165450Y341580D01*
X165419Y341574D01*
X165373Y341564D01*
X165321Y341544D01*
X165264Y341518D01*
X165205Y341479D01*
X165149Y341428D01*
X165133Y341412D01*
X165126Y341399D01*
X165097Y341366D01*
X165069Y341322D01*
X165041Y341273D01*
X165015Y341212D01*
X164997Y341147D01*
X164989Y341078D01*
Y341067D01*
X164992Y341044D01*
X164997Y341008D01*
X165012Y340962D01*
X165030Y340908D01*
X165061Y340846D01*
X165102Y340784D01*
X165156Y340720D01*
X164909Y340519D01*
X164907Y340522D01*
X164901Y340532D01*
X164889Y340545D01*
X164873Y340565D01*
X164858Y340591D01*
X164840Y340619D01*
X164819Y340655D01*
X164799Y340691D01*
X164757Y340774D01*
X164726Y340867D01*
X164714Y340915D01*
X164706Y340969D01*
X164701Y341021D01*
Y341073D01*
Y341078D01*
X164703Y341085D01*
Y341101D01*
X164708Y341121D01*
X164714Y341147D01*
X164721Y341175D01*
X164729Y341209D01*
X164742Y341248D01*
X164757Y341289D01*
X164775Y341332D01*
X164799Y341376D01*
X164824Y341423D01*
X164855Y341469D01*
X164889Y341518D01*
X164930Y341564D01*
X164974Y341613D01*
X164999Y341639D01*
X165020Y341654D01*
X165043Y341672D01*
X165071Y341695D01*
X165105Y341719D01*
X165138Y341742D01*
X165223Y341791D01*
X165316Y341832D01*
X165365Y341850D01*
X165416Y341865D01*
X165470Y341873D01*
X165524Y341876D01*
X165530D01*
X165537Y341878D01*
X165553Y341873D01*
D02*
G37*
G36*
X165118Y339683D02*
X165120Y339680D01*
X165131Y339670D01*
X165144Y339657D01*
X165162Y339639D01*
X165182Y339613D01*
X165208Y339587D01*
X165236Y339554D01*
X165264Y339520D01*
X165326Y339443D01*
X165388Y339361D01*
X165442Y339276D01*
X165465Y339232D01*
X165486Y339191D01*
X165488Y339188D01*
X165491Y339181D01*
X165494Y339168D01*
X165499Y339152D01*
X165512Y339109D01*
X165524Y339049D01*
X165535Y338977D01*
X165540Y338900D01*
X165537Y338810D01*
X165519Y338715D01*
X165517Y338712D01*
Y338702D01*
X165512Y338692D01*
X165506Y338671D01*
X165499Y338648D01*
X165486Y338620D01*
X165473Y338591D01*
X165457Y338555D01*
X165439Y338517D01*
X165416Y338478D01*
X165391Y338437D01*
X165360Y338390D01*
X165326Y338347D01*
X165290Y338300D01*
X165203Y338203D01*
X165180Y338179D01*
X165159Y338164D01*
X165138Y338143D01*
X165110Y338120D01*
X165079Y338094D01*
X165048Y338069D01*
X164974Y338015D01*
X164889Y337961D01*
X164801Y337914D01*
X164708Y337878D01*
X164706Y337876D01*
X164696D01*
X164683Y337873D01*
X164667Y337868D01*
X164618Y337860D01*
X164557Y337855D01*
X164482Y337853D01*
X164405Y337858D01*
X164317Y337873D01*
X164232Y337901D01*
X164230Y337904D01*
X164222Y337907D01*
X164209Y337914D01*
X164191Y337922D01*
X164171Y337932D01*
X164145Y337948D01*
X164114Y337963D01*
X164081Y337986D01*
X164044Y338012D01*
X164003Y338038D01*
X163962Y338069D01*
X163918Y338102D01*
X163869Y338141D01*
X163821Y338185D01*
X163769Y338231D01*
X163717Y338282D01*
X162688Y339312D01*
X162925Y339549D01*
X163954Y338519D01*
X163957Y338517D01*
X163965Y338509D01*
X163978Y338496D01*
X163993Y338481D01*
X164014Y338465D01*
X164037Y338442D01*
X164088Y338396D01*
X164150Y338344D01*
X164214Y338295D01*
X164279Y338251D01*
X164307Y338233D01*
X164338Y338218D01*
X164346Y338215D01*
X164364Y338208D01*
X164394Y338203D01*
X164436Y338192D01*
X164479Y338185D01*
X164533Y338182D01*
X164593Y338185D01*
X164652Y338197D01*
X164660Y338200D01*
X164680Y338205D01*
X164711Y338221D01*
X164752Y338241D01*
X164801Y338264D01*
X164855Y338303D01*
X164912Y338344D01*
X164968Y338396D01*
X164994Y338421D01*
X165007Y338439D01*
X165030Y338463D01*
X165051Y338488D01*
X165097Y338555D01*
X165146Y338630D01*
X165185Y338710D01*
X165213Y338795D01*
X165221Y338838D01*
X165223Y338882D01*
Y338887D01*
Y338892D01*
X165221Y338905D01*
X165218Y338923D01*
X165210Y338947D01*
X165205Y338972D01*
X165192Y339006D01*
X165180Y339039D01*
X165162Y339078D01*
X165136Y339119D01*
X165107Y339168D01*
X165074Y339217D01*
X165035Y339271D01*
X164992Y339325D01*
X164940Y339387D01*
X164881Y339446D01*
X163851Y340475D01*
X164088Y340712D01*
X165118Y339683D01*
D02*
G37*
G36*
X291741Y288269D02*
X289772D01*
X289775Y288265D01*
X289790Y288247D01*
X289812Y288225D01*
X289837Y288189D01*
X289870Y288149D01*
X289907Y288098D01*
X289947Y288039D01*
X289987Y287974D01*
Y287970D01*
X289990Y287967D01*
X290005Y287945D01*
X290023Y287908D01*
X290045Y287865D01*
X290070Y287814D01*
X290096Y287759D01*
X290121Y287704D01*
X290143Y287650D01*
X289845D01*
Y287654D01*
X289837Y287661D01*
X289834Y287675D01*
X289823Y287694D01*
X289812Y287715D01*
X289797Y287741D01*
X289761Y287803D01*
X289721Y287876D01*
X289670Y287948D01*
X289612Y288025D01*
X289550Y288101D01*
X289546Y288105D01*
X289543Y288109D01*
X289532Y288120D01*
X289521Y288134D01*
X289484Y288167D01*
X289441Y288211D01*
X289390Y288254D01*
X289331Y288301D01*
X289273Y288341D01*
X289211Y288378D01*
Y288578D01*
X291741D01*
Y288269D01*
D02*
G37*
G36*
X290544Y287078D02*
X290573D01*
X290642Y287075D01*
X290722Y287064D01*
X290806Y287053D01*
X290893Y287035D01*
X290980Y287013D01*
X290984D01*
X290991Y287009D01*
X291002Y287006D01*
X291017Y287002D01*
X291057Y286987D01*
X291108Y286966D01*
X291166Y286944D01*
X291224Y286915D01*
X291286Y286878D01*
X291344Y286842D01*
X291352Y286838D01*
X291370Y286824D01*
X291395Y286802D01*
X291428Y286773D01*
X291464Y286740D01*
X291501Y286700D01*
X291541Y286660D01*
X291574Y286613D01*
X291577Y286605D01*
X291588Y286591D01*
X291603Y286565D01*
X291621Y286529D01*
X291643Y286485D01*
X291661Y286434D01*
X291683Y286376D01*
X291701Y286310D01*
Y286303D01*
X291705Y286292D01*
X291708Y286281D01*
X291712Y286245D01*
X291719Y286194D01*
X291727Y286136D01*
X291734Y286067D01*
X291738Y285990D01*
X291741Y285906D01*
Y285000D01*
X289222D01*
Y285968D01*
X289226Y286034D01*
X289229Y286107D01*
X289237Y286179D01*
X289248Y286252D01*
X289259Y286314D01*
Y286318D01*
X289262Y286325D01*
Y286336D01*
X289270Y286350D01*
X289281Y286390D01*
X289299Y286441D01*
X289324Y286500D01*
X289357Y286562D01*
X289393Y286623D01*
X289441Y286682D01*
X289444Y286685D01*
X289448Y286689D01*
X289459Y286700D01*
X289470Y286714D01*
X289506Y286751D01*
X289557Y286794D01*
X289619Y286842D01*
X289692Y286893D01*
X289775Y286940D01*
X289870Y286980D01*
X289874D01*
X289881Y286984D01*
X289896Y286991D01*
X289917Y286995D01*
X289943Y287006D01*
X289972Y287013D01*
X290005Y287020D01*
X290045Y287031D01*
X290085Y287042D01*
X290132Y287049D01*
X290234Y287068D01*
X290347Y287078D01*
X290471Y287082D01*
X290474D01*
X290482D01*
X290500D01*
X290518D01*
X290544Y287078D01*
D02*
G37*
%LPC*%
G36*
X290463Y286740D02*
X290460D01*
X290445D01*
X290427D01*
X290398Y286736D01*
X290365D01*
X290329Y286733D01*
X290285Y286729D01*
X290241Y286725D01*
X290143Y286707D01*
X290041Y286685D01*
X289947Y286653D01*
X289899Y286631D01*
X289859Y286609D01*
X289856D01*
X289848Y286602D01*
X289837Y286594D01*
X289823Y286587D01*
X289786Y286558D01*
X289743Y286522D01*
X289695Y286474D01*
X289648Y286420D01*
X289608Y286358D01*
X289575Y286292D01*
X289572Y286285D01*
X289568Y286267D01*
X289557Y286234D01*
X289546Y286187D01*
X289539Y286128D01*
X289528Y286056D01*
X289524Y286012D01*
Y285965D01*
X289521Y285917D01*
Y285335D01*
X291443D01*
Y285932D01*
X291439Y285957D01*
X291435Y286012D01*
X291432Y286074D01*
X291424Y286139D01*
X291413Y286205D01*
X291399Y286259D01*
X291395Y286267D01*
X291392Y286285D01*
X291381Y286310D01*
X291366Y286343D01*
X291344Y286380D01*
X291322Y286416D01*
X291297Y286452D01*
X291268Y286489D01*
X291261Y286492D01*
X291246Y286507D01*
X291221Y286529D01*
X291184Y286554D01*
X291137Y286583D01*
X291082Y286616D01*
X291020Y286645D01*
X290951Y286671D01*
X290948D01*
X290940Y286674D01*
X290929Y286678D01*
X290915Y286682D01*
X290897Y286685D01*
X290871Y286693D01*
X290846Y286700D01*
X290817Y286707D01*
X290744Y286718D01*
X290660Y286729D01*
X290565Y286736D01*
X290463Y286740D01*
D02*
G37*
%LPD*%
D12*
X147658Y335134D02*
X162134Y320657D01*
X181342Y339866D01*
X166866Y354343D02*
X181342Y339866D01*
X147658Y335134D02*
X166866Y354343D01*
X287260Y276634D02*
X294740D01*
Y293366D01*
X287260D02*
X294740D01*
X287260Y276634D02*
Y293366D01*
M02*
